<svg xmlns="http://www.w3.org/2000/svg" xmlns:v="https://svgstorm.com"
viewBox = "0 0 96 106"
width="96"
height="106">
<g fill="None" fill-opacity="0.0" stroke="black" stroke-width="1"><path d="
M 0.00 106.00 
L 40.00 106.00
C 28.25 102.58 16.07 93.85 11.00 82.00
C 18.30 90.66 24.26 95.51 35.08 99.92 C 45.89 104.34 60.01 101.43 70.08 96.08 C 80.14 90.72 81.99 77.23 92.00 75.00
C 89.30 89.54 75.09 99.97 63.00 106.00
L 96.00 106.00
L 96.00 0.00
L 0.00 0.00
L 0.00 106.00
M 93.00 38.00 
C 82.90 37.01 81.29 24.18 72.25 17.75 C 63.21 11.33 50.00 7.92 38.98 10.98 C 27.95 14.04 20.95 20.05 13.00 27.00
C 30.94 -7.27 84.27 2.17 93.00 38.00
M 73.00 38.00 
C 65.36 40.21 63.94 33.06 58.75 29.25 C 53.57 25.44 45.53 25.76 40.00 24.00
C 52.25 20.42 68.31 25.50 73.00 38.00
M 36.00 44.00 
C 46.71 53.42 39.73 73.37 25.00 71.00 C 10.27 68.63 10.53 45.94 23.00 42.00
C 27.92 40.44 32.00 40.48 36.00 44.00
M 67.00 42.00 
C 67.75 43.19 66.43 45.69 67.00 47.00
C 63.65 46.91 48.09 45.41 50.01 51.01 C 51.93 56.60 63.00 50.69 66.25 55.75 C 69.49 60.82 70.37 66.07 64.75 69.75 C 59.14 73.44 51.36 69.58 45.00 71.00
C 41.97 60.31 68.62 71.47 60.00 59.00
C 57.18 57.65 51.83 59.04 49.00 58.00
C 41.15 55.10 41.60 45.01 49.00 42.00
C 51.55 40.96 65.16 39.09 67.00 42.00
M 75.00 50.00 
C 76.10 46.48 80.08 46.90 83.00 47.00
C 83.06 42.71 76.45 46.91 75.00 44.00
C 74.94 43.80 83.58 37.32 85.74 43.26 C 87.91 49.19 82.92 48.95 78.33 50.33 C 73.74 51.71 84.72 55.86 86.00 55.00
C 83.24 57.16 78.51 55.45 75.00 56.00
C 75.00 54.00 75.00 52.00 75.00 50.00
M 73.00 74.00 
C 68.25 86.53 52.37 91.63 40.00 88.00
C 45.74 86.70 52.72 86.69 58.08 83.08 C 63.43 79.46 65.35 71.82 73.00 74.00 Z"/>
</g>
<g fill="None" fill-opacity="0.0" stroke="black" stroke-width="1"><path d="
M 93.00 38.00 
C 84.27 2.17 30.94 -7.27 13.00 27.00
C 20.95 20.05 27.95 14.04 38.98 10.98 C 50.00 7.92 63.21 11.33 72.25 17.75 C 81.29 24.18 82.90 37.01 93.00 38.00 Z"/>
</g>
<g fill="None" fill-opacity="0.0" stroke="black" stroke-width="1"><path d="
M 73.00 38.00 
C 68.31 25.50 52.25 20.42 40.00 24.00
C 45.53 25.76 53.57 25.44 58.75 29.25 C 63.94 33.06 65.36 40.21 73.00 38.00 Z"/>
</g>
<g fill="None" fill-opacity="0.0" stroke="black" stroke-width="1"><path d="
M 23.00 42.00 
C 27.21 41.25 32.52 41.71 36.00 44.00
C 32.00 40.48 27.92 40.44 23.00 42.00 Z"/>
</g>
<g fill="None" fill-opacity="0.0" stroke="black" stroke-width="1"><path d="
M 49.00 42.00 
C 54.64 40.58 61.27 43.06 67.00 42.00
C 65.16 39.09 51.55 40.96 49.00 42.00 Z"/>
</g>
<g fill="None" fill-opacity="0.0" stroke="black" stroke-width="1"><path d="
M 36.00 44.00 
C 32.52 41.71 27.21 41.25 23.00 42.00
C 10.53 45.94 10.27 68.63 25.00 71.00 C 39.73 73.37 46.71 53.42 36.00 44.00
M 31.00 47.00 
C 39.14 50.42 32.99 70.89 24.33 65.67 C 15.67 60.45 21.25 42.90 31.00 47.00 Z"/>
</g>
<g fill="None" fill-opacity="0.0" stroke="black" stroke-width="1"><path d="
M 49.00 58.00 
C 52.69 58.82 56.99 56.86 60.00 59.00
C 68.62 71.47 41.97 60.31 45.00 71.00
C 51.36 69.58 59.14 73.44 64.75 69.75 C 70.37 66.07 69.49 60.82 66.25 55.75 C 63.00 50.69 51.93 56.60 50.01 51.01 C 48.09 45.41 63.65 46.91 67.00 47.00
C 66.43 45.69 67.75 43.19 67.00 42.00
C 61.27 43.06 54.64 40.58 49.00 42.00
C 41.60 45.01 41.15 55.10 49.00 58.00 Z"/>
</g>
<g fill="None" fill-opacity="0.0" stroke="black" stroke-width="1"><path d="
M 75.00 44.00 
C 76.98 43.77 85.02 43.29 83.64 46.70 C 82.26 50.10 76.70 46.40 75.00 50.00
C 75.00 52.00 75.00 54.00 75.00 56.00
C 78.51 55.45 83.24 57.16 86.00 55.00
C 84.72 55.86 73.74 51.71 78.33 50.33 C 82.92 48.95 87.91 49.19 85.74 43.26 C 83.58 37.32 74.94 43.80 75.00 44.00 Z"/>
</g>
<g fill="None" fill-opacity="0.0" stroke="black" stroke-width="1"><path d="
M 75.00 50.00 
C 76.70 46.40 82.26 50.10 83.64 46.70 C 85.02 43.29 76.98 43.77 75.00 44.00
C 76.45 46.91 83.06 42.71 83.00 47.00
C 80.08 46.90 76.10 46.48 75.00 50.00 Z"/>
</g>
<g fill="None" fill-opacity="0.0" stroke="black" stroke-width="1"><path d="
M 31.00 47.00 
C 21.25 42.90 15.67 60.45 24.33 65.67 C 32.99 70.89 39.14 50.42 31.00 47.00 Z"/>
</g>
<g fill="None" fill-opacity="0.0" stroke="black" stroke-width="1"><path d="
M 60.00 59.00 
C 56.99 56.86 52.69 58.82 49.00 58.00
C 51.83 59.04 57.18 57.65 60.00 59.00 Z"/>
</g>
<g fill="None" fill-opacity="0.0" stroke="black" stroke-width="1"><path d="
M 73.00 74.00 
C 65.35 71.82 63.43 79.46 58.08 83.08 C 52.72 86.69 45.74 86.70 40.00 88.00
C 52.37 91.63 68.25 86.53 73.00 74.00 Z"/>
</g>
<g fill="None" fill-opacity="0.0" stroke="black" stroke-width="1"><path d="
M 40.00 106.00 
L 63.00 106.00
C 75.09 99.97 89.30 89.54 92.00 75.00
C 81.99 77.23 80.14 90.72 70.08 96.08 C 60.01 101.43 45.89 104.34 35.08 99.92 C 24.26 95.51 18.30 90.66 11.00 82.00
C 16.07 93.85 28.25 102.58 40.00 106.00 Z"/>
</g>
</svg>