<svg xmlns="http://www.w3.org/2000/svg" xmlns:v="https://svgstorm.com"
viewBox = "0 0 84 91"
width="84"
height="91">
<g fill="None" fill-opacity="0.0" stroke="black" stroke-width="1"><path d="
M 0.00 91.00 
L 84.00 91.00
L 84.00 0.00
L 0.00 0.00
L 0.00 91.00
M 82.00 68.00 
C 64.68 73.98 47.11 97.34 28.92 81.08 C 21.41 75.28 9.72 73.35 5.03 64.97 C 5.48 51.65 3.98 37.70 5.78 24.78 C 13.57 18.75 22.71 15.14 31.08 10.08 C 39.72 1.88 49.33 4.63 58.08 10.92 C 65.45 16.95 77.36 18.50 81.97 27.03 C 82.04 40.68 81.98 54.34 82.00 68.00 Z"/>
</g>
<g fill="None" fill-opacity="0.0" stroke="black" stroke-width="1"><path d="
M 82.00 68.00 
C 81.98 54.34 82.04 40.68 81.97 27.03 C 77.36 18.50 65.45 16.95 58.08 10.92 C 49.33 4.63 39.72 1.88 31.08 10.08 C 22.71 15.14 13.57 18.75 5.78 24.78 C 3.98 37.70 5.48 51.65 5.03 64.97 C 9.72 73.35 21.41 75.28 28.92 81.08 C 47.11 97.34 64.68 73.98 82.00 68.00
M 24.00 33.00 
C 31.65 32.81 34.21 26.43 40.01 24.01 C 46.14 23.04 52.08 28.86 59.22 27.78 C 65.10 33.67 50.52 38.33 47.75 32.25 C 43.04 25.19 30.84 37.52 43.00 36.00 C 54.12 33.47 50.13 48.89 41.00 46.00 C 36.55 42.89 29.96 35.58 25.08 43.08 C 22.38 50.81 39.70 43.17 37.66 52.68 C 36.93 59.70 25.98 61.61 22.25 55.75 C 23.33 47.15 7.65 55.42 10.78 45.78 C 13.49 40.29 25.16 41.50 24.00 33.00
M 71.00 30.00 
C 80.19 32.34 74.01 42.45 66.00 39.00 C 56.54 37.70 64.10 27.31 71.00 30.00
M 49.00 54.00 
C 59.47 57.72 52.62 70.74 43.00 69.00 C 31.44 65.69 39.07 51.22 49.00 54.00 Z"/>
</g>
<g fill="None" fill-opacity="0.0" stroke="black" stroke-width="1"><path d="
M 24.00 33.00 
C 25.16 41.50 13.49 40.29 10.78 45.78 C 7.65 55.42 23.33 47.15 22.25 55.75 C 25.98 61.61 36.93 59.70 37.66 52.68 C 39.70 43.17 22.38 50.81 25.08 43.08 C 29.96 35.58 36.55 42.89 41.00 46.00 C 50.13 48.89 54.12 33.47 43.00 36.00 C 30.84 37.52 43.04 25.19 47.75 32.25 C 50.52 38.33 65.10 33.67 59.22 27.78 C 52.08 28.86 46.14 23.04 40.01 24.01 C 34.21 26.43 31.65 32.81 24.00 33.00 Z"/>
</g>
<g fill="None" fill-opacity="0.0" stroke="black" stroke-width="1"><path d="
M 71.00 30.00 
C 64.10 27.31 56.54 37.70 66.00 39.00 C 74.01 42.45 80.19 32.34 71.00 30.00 Z"/>
</g>
<g fill="None" fill-opacity="0.0" stroke="black" stroke-width="1"><path d="
M 49.00 54.00 
C 39.07 51.22 31.44 65.69 43.00 69.00 C 52.62 70.74 59.47 57.72 49.00 54.00 Z"/>
</g>
</svg>