<svg xmlns="http://www.w3.org/2000/svg" xmlns:v="https://svgstorm.com"
viewBox = "0 0 420 382"
width="420"
height="382">
<g fill="None" fill-opacity="0.0" stroke="black" stroke-width="1"><path d="
M 0.00 382.00 
L 420.00 382.00
L 420.00 0.00
L 0.00 0.00
L 0.00 382.00
M 215.00 8.00 
C 240.32 11.62 247.78 40.76 260.25 59.75 C 272.73 78.73 283.74 102.31 295.92 122.08 C 308.11 141.84 319.25 163.70 331.30 183.70 C 343.36 203.69 354.27 226.66 366.77 246.23 C 379.27 265.80 388.81 289.60 401.77 308.23 C 414.73 326.86 427.87 361.56 399.77 373.77 C 371.67 385.98 339.11 377.30 308.00 379.00 C 276.89 380.70 241.33 379.02 210.00 379.00 C 178.67 378.99 143.78 380.79 113.00 379.00 C 82.22 377.21 48.66 386.91 22.25 371.75 C -4.15 356.58 12.12 324.13 23.77 304.77 C 35.42 285.41 46.66 261.50 58.25 241.25 C 69.85 221.01 81.28 199.38 92.77 178.77 C 104.26 158.17 116.26 136.41 127.77 115.77 C 139.28 95.13 151.15 74.38 162.77 53.77 C 174.39 33.16 185.19 3.74 215.00 8.00 Z"/>
</g>
<g fill="None" fill-opacity="0.0" stroke="black" stroke-width="1"><path d="
M 215.00 8.00 
C 185.19 3.74 174.39 33.16 162.77 53.77 C 151.15 74.38 139.28 95.13 127.77 115.77 C 116.26 136.41 104.26 158.17 92.77 178.77 C 81.28 199.38 69.85 221.01 58.25 241.25 C 46.66 261.50 35.42 285.41 23.77 304.77 C 12.12 324.13 -4.15 356.58 22.25 371.75 C 48.66 386.91 82.22 377.21 113.00 379.00 C 143.78 380.79 178.67 378.99 210.00 379.00 C 241.33 379.02 276.89 380.70 308.00 379.00 C 339.11 377.30 371.67 385.98 399.77 373.77 C 427.87 361.56 414.73 326.86 401.77 308.23 C 388.81 289.60 379.27 265.80 366.77 246.23 C 354.27 226.66 343.36 203.69 331.30 183.70 C 319.25 163.70 308.11 141.84 295.92 122.08 C 283.74 102.31 272.73 78.73 260.25 59.75 C 247.78 40.76 240.32 11.62 215.00 8.00
M 215.00 57.00 
C 221.97 59.57 223.11 72.36 228.25 77.75 C 233.40 83.14 236.29 93.65 240.92 100.08 C 245.55 106.51 248.58 114.98 253.25 121.75 C 257.93 128.51 261.51 137.00 265.92 144.08 C 270.34 151.15 273.99 158.48 278.30 165.70 C 282.61 172.91 286.43 180.94 290.77 188.23 C 295.11 195.52 299.18 203.40 303.32 210.68 C 307.46 217.95 311.80 224.85 315.77 232.23 C 319.74 239.61 323.92 247.59 328.31 254.70 C 332.69 261.80 336.10 269.62 340.31 276.70 C 344.51 283.77 348.89 292.25 352.92 299.08 C 356.96 305.90 361.02 314.80 365.25 320.75 C 369.49 326.69 377.10 340.19 365.77 342.77 C 354.44 345.35 342.42 341.96 331.00 343.00 C 319.58 344.04 308.46 342.55 297.00 343.00 C 285.54 343.45 273.48 342.81 262.00 343.00 C 250.52 343.19 239.47 342.96 228.00 343.00 C 216.53 343.04 204.43 343.07 193.00 343.00 C 181.57 342.93 170.34 343.25 159.00 343.00 C 147.66 342.75 135.15 343.57 124.00 343.00 C 112.85 342.43 99.62 344.26 89.00 343.00 C 78.38 341.74 65.54 346.73 56.77 341.23 C 48.00 335.73 58.35 324.83 61.30 318.30 C 64.26 311.78 70.05 303.75 73.75 296.75 C 77.46 289.76 81.99 281.02 85.78 273.78 C 89.56 266.53 94.04 259.33 97.92 251.92 C 101.80 244.51 106.41 236.81 110.30 229.30 C 114.20 221.80 118.72 214.23 122.77 206.77 C 126.82 199.31 130.61 192.14 134.77 184.77 C 138.93 177.40 142.85 169.32 146.92 161.92 C 151.00 154.53 155.51 147.80 159.30 140.30 C 163.10 132.80 167.73 125.12 171.77 117.77 C 175.81 110.42 179.54 102.85 183.77 95.77 C 188.00 88.69 192.09 80.07 196.30 73.30 C 200.52 66.53 204.09 52.97 215.00 57.00 Z"/>
</g>
<g fill="None" fill-opacity="0.0" stroke="black" stroke-width="1"><path d="
M 215.00 57.00 
C 204.09 52.97 200.52 66.53 196.30 73.30 C 192.09 80.07 188.00 88.69 183.77 95.77 C 179.54 102.85 175.81 110.42 171.77 117.77 C 167.73 125.12 163.10 132.80 159.30 140.30 C 155.51 147.80 151.00 154.53 146.92 161.92 C 142.85 169.32 138.93 177.40 134.77 184.77 C 130.61 192.14 126.82 199.31 122.77 206.77 C 118.72 214.23 114.20 221.80 110.30 229.30 C 106.41 236.81 101.80 244.51 97.92 251.92 C 94.04 259.33 89.56 266.53 85.78 273.78 C 81.99 281.02 77.46 289.76 73.75 296.75 C 70.05 303.75 64.26 311.78 61.30 318.30 C 58.35 324.83 48.00 335.73 56.77 341.23 C 65.54 346.73 78.38 341.74 89.00 343.00 C 99.62 344.26 112.85 342.43 124.00 343.00 C 135.15 343.57 147.66 342.75 159.00 343.00 C 170.34 343.25 181.57 342.93 193.00 343.00 C 204.43 343.07 216.53 343.04 228.00 343.00 C 239.47 342.96 250.52 343.19 262.00 343.00 C 273.48 342.81 285.54 343.45 297.00 343.00 C 308.46 342.55 319.58 344.04 331.00 343.00 C 342.42 341.96 354.44 345.35 365.77 342.77 C 377.10 340.19 369.49 326.69 365.25 320.75 C 361.02 314.80 356.96 305.90 352.92 299.08 C 348.89 292.25 344.51 283.77 340.31 276.70 C 336.10 269.62 332.69 261.80 328.31 254.70 C 323.92 247.59 319.74 239.61 315.77 232.23 C 311.80 224.85 307.46 217.95 303.32 210.68 C 299.18 203.40 295.11 195.52 290.77 188.23 C 286.43 180.94 282.61 172.91 278.30 165.70 C 273.99 158.48 270.34 151.15 265.92 144.08 C 261.51 137.00 257.93 128.51 253.25 121.75 C 248.58 114.98 245.55 106.51 240.92 100.08 C 236.29 93.65 233.40 83.14 228.25 77.75 C 223.11 72.36 221.97 59.57 215.00 57.00
M 147.00 262.00 
C 147.54 269.78 157.97 266.96 163.00 266.00
C 165.74 276.79 148.59 275.78 142.75 271.25 C 136.92 266.71 135.59 252.82 142.25 248.25 C 148.90 243.68 156.83 240.59 162.92 250.08 C 169.00 259.58 158.07 265.85 147.00 262.00
M 196.00 249.00 
C 213.51 234.04 219.57 259.90 216.00 274.00
C 213.00 274.00 210.00 274.00 207.00 274.00
C 204.84 269.01 211.42 252.86 202.97 252.03 C 194.53 251.20 199.06 268.96 198.00 274.00
C 195.00 274.00 192.00 274.00 189.00 274.00
C 190.84 268.05 189.37 247.36 181.26 253.26 C 173.15 259.15 188.51 278.61 171.00 274.00
C 171.00 264.33 171.00 254.67 171.00 245.00
C 173.79 245.57 179.87 243.13 179.00 248.00
C 183.91 244.98 193.39 241.59 196.00 249.00
M 237.00 244.00 
C 256.29 244.64 254.73 275.63 235.00 274.00 C 215.27 272.37 218.34 243.38 237.00 244.00
M 295.00 262.00 
C 296.70 269.31 305.70 268.10 311.00 266.00
C 315.14 276.36 297.11 275.86 291.31 271.69 C 285.50 267.53 283.74 253.73 289.77 248.77 C 295.80 243.81 305.09 240.33 311.25 249.75 C 317.41 259.17 305.91 266.14 295.00 262.00
M 125.00 249.00 
C 126.99 245.06 131.79 244.55 136.00 245.00
C 134.55 247.45 135.08 250.43 134.00 253.00
C 121.87 251.30 125.47 266.37 125.00 274.00
C 122.00 274.00 119.00 274.00 116.00 274.00
C 116.00 264.33 116.00 254.67 116.00 245.00
C 119.60 245.04 125.19 243.77 125.00 249.00
M 263.00 245.00 
C 265.12 250.75 264.94 259.64 270.00 263.00
C 270.12 256.57 273.32 251.00 275.00 245.00
C 278.00 245.00 281.00 245.00 284.00 245.00
C 278.41 252.05 280.20 273.33 269.00 274.00 C 257.80 274.66 257.79 252.42 254.00 245.00
C 257.00 245.00 260.00 245.00 263.00 245.00 Z"/>
</g>
<g fill="None" fill-opacity="0.0" stroke="black" stroke-width="1"><path d="
M 147.00 262.00 
C 158.07 265.85 169.00 259.58 162.92 250.08 C 156.83 240.59 148.90 243.68 142.25 248.25 C 135.59 252.82 136.92 266.71 142.75 271.25 C 148.59 275.78 165.74 276.79 163.00 266.00
C 157.97 266.96 147.54 269.78 147.00 262.00
M 147.00 256.00 
C 146.86 251.52 153.33 248.19 155.92 253.08 C 158.50 257.98 150.27 257.62 147.00 256.00 Z"/>
</g>
<g fill="None" fill-opacity="0.0" stroke="black" stroke-width="1"><path d="
M 196.00 249.00 
C 193.39 241.59 183.91 244.98 179.00 248.00
C 179.87 243.13 173.79 245.57 171.00 245.00
C 171.00 254.67 171.00 264.33 171.00 274.00
C 188.51 278.61 173.15 259.15 181.26 253.26 C 189.37 247.36 190.84 268.05 189.00 274.00
C 192.00 274.00 195.00 274.00 198.00 274.00
C 199.06 268.96 194.53 251.20 202.97 252.03 C 211.42 252.86 204.84 269.01 207.00 274.00
C 210.00 274.00 213.00 274.00 216.00 274.00
C 219.57 259.90 213.51 234.04 196.00 249.00 Z"/>
</g>
<g fill="None" fill-opacity="0.0" stroke="black" stroke-width="1"><path d="
M 237.00 244.00 
C 218.34 243.38 215.27 272.37 235.00 274.00 C 254.73 275.63 256.29 244.64 237.00 244.00
M 238.00 251.00 
C 244.68 252.96 241.32 270.24 234.00 267.00 C 226.68 263.76 230.96 248.93 238.00 251.00 Z"/>
</g>
<g fill="None" fill-opacity="0.0" stroke="black" stroke-width="1"><path d="
M 295.00 262.00 
C 305.91 266.14 317.41 259.17 311.25 249.75 C 305.09 240.33 295.80 243.81 289.77 248.77 C 283.74 253.73 285.50 267.53 291.31 271.69 C 297.11 275.86 315.14 276.36 311.00 266.00
C 305.70 268.10 296.70 269.31 295.00 262.00
M 305.00 256.00 
C 301.67 256.00 298.33 256.00 295.00 256.00
C 295.05 249.92 305.97 249.03 305.00 256.00 Z"/>
</g>
<g fill="None" fill-opacity="0.0" stroke="black" stroke-width="1"><path d="
M 125.00 249.00 
C 125.19 243.77 119.60 245.04 116.00 245.00
C 116.00 254.67 116.00 264.33 116.00 274.00
C 119.00 274.00 122.00 274.00 125.00 274.00
C 125.47 266.37 121.87 251.30 134.00 253.00
C 135.08 250.43 134.55 247.45 136.00 245.00
C 131.79 244.55 126.99 245.06 125.00 249.00 Z"/>
</g>
<g fill="None" fill-opacity="0.0" stroke="black" stroke-width="1"><path d="
M 263.00 245.00 
C 260.00 245.00 257.00 245.00 254.00 245.00
C 257.79 252.42 257.80 274.66 269.00 274.00 C 280.20 273.33 278.41 252.05 284.00 245.00
C 281.00 245.00 278.00 245.00 275.00 245.00
C 273.32 251.00 270.12 256.57 270.00 263.00
C 264.94 259.64 265.12 250.75 263.00 245.00 Z"/>
</g>
<g fill="None" fill-opacity="0.0" stroke="black" stroke-width="1"><path d="
M 147.00 256.00 
C 150.27 257.62 158.50 257.98 155.92 253.08 C 153.33 248.19 146.86 251.52 147.00 256.00 Z"/>
</g>
<g fill="None" fill-opacity="0.0" stroke="black" stroke-width="1"><path d="
M 238.00 251.00 
C 230.96 248.93 226.68 263.76 234.00 267.00 C 241.32 270.24 244.68 252.96 238.00 251.00 Z"/>
</g>
<g fill="None" fill-opacity="0.0" stroke="black" stroke-width="1"><path d="
M 305.00 256.00 
C 305.97 249.03 295.05 249.92 295.00 256.00
C 298.33 256.00 301.67 256.00 305.00 256.00 Z"/>
</g>
</svg>