<svg xmlns="http://www.w3.org/2000/svg" xmlns:v="https://svgstorm.com"
viewBox = "0 0 193 190"
width="193"
height="190">
<g fill="None" fill-opacity="0.0" stroke="black" stroke-width="1"><path d="
M 0.00 190.00 
L 193.00 190.00
L 193.00 0.00
L 0.00 0.00
L 0.00 190.00
M 108.00 4.00 
C 176.91 10.67 215.79 95.41 174.23 150.23 C 132.67 205.05 46.25 200.23 14.23 137.77 C -17.79 75.31 35.50 -3.02 108.00 4.00 Z"/>
</g>
<g fill="None" fill-opacity="0.0" stroke="black" stroke-width="1"><path d="
M 108.00 4.00 
C 35.50 -3.02 -17.79 75.31 14.23 137.77 C 46.25 200.23 132.67 205.05 174.23 150.23 C 215.79 95.41 176.91 10.67 108.00 4.00
M 102.00 35.00 
C 146.94 39.35 176.02 91.47 149.70 129.70 C 123.38 167.92 66.55 164.16 43.75 125.25 C 20.94 86.34 54.91 30.44 102.00 35.00 Z"/>
</g>
<g fill="None" fill-opacity="0.0" stroke="black" stroke-width="1"><path d="
M 102.00 35.00 
C 54.91 30.44 20.94 86.34 43.75 125.25 C 66.55 164.16 123.38 167.92 149.70 129.70 C 176.02 91.47 146.94 39.35 102.00 35.00
M 81.00 80.00 
C 79.90 83.89 82.15 85.97 86.00 85.00
C 86.84 88.93 85.64 92.33 81.00 91.00
C 81.00 94.33 81.00 97.67 81.00 101.00
C 84.93 101.45 85.57 104.30 85.00 108.00
C 80.97 108.57 75.55 108.23 74.08 103.92 C 72.62 99.61 77.00 91.31 71.00 91.00
C 71.29 85.19 73.55 78.44 81.00 80.00
M 146.00 85.00 
C 146.84 88.93 145.64 92.33 141.00 91.00
C 140.96 94.78 140.72 98.55 142.00 102.00
C 146.44 100.54 146.28 104.93 146.00 108.00
C 141.65 108.55 135.95 108.18 134.23 103.77 C 132.51 99.36 137.02 91.40 131.00 91.00
C 128.92 85.23 135.45 85.45 134.00 80.00
C 142.11 76.72 139.07 86.69 146.00 85.00
M 67.00 91.00 
C 64.15 91.13 59.60 88.01 58.00 92.00
C 77.35 94.44 64.93 115.71 50.00 107.00
C 49.51 97.39 54.23 105.33 59.02 102.98 C 63.82 100.62 54.88 98.34 52.25 95.75 C 49.61 93.17 51.83 84.71 57.03 85.03 C 62.22 85.34 70.49 83.40 67.00 91.00
M 110.00 108.00 
C 103.47 103.50 93.63 113.11 88.25 104.75 C 82.86 96.40 98.10 93.24 103.00 93.00
C 100.08 89.90 95.53 90.93 92.00 92.00
C 88.78 83.24 102.02 82.62 107.23 86.77 C 112.44 90.92 109.02 102.02 110.00 108.00
M 123.00 88.00 
C 125.20 86.47 126.90 84.13 130.00 85.00
C 132.24 91.38 126.81 90.96 124.10 94.10 C 121.40 97.24 123.85 104.13 123.00 108.00
C 109.25 111.20 116.99 92.96 115.00 85.00
C 117.79 85.57 123.87 83.13 123.00 88.00 Z"/>
</g>
<g fill="None" fill-opacity="0.0" stroke="black" stroke-width="1"><path d="
M 81.00 80.00 
C 73.55 78.44 71.29 85.19 71.00 91.00
C 77.00 91.31 72.62 99.61 74.08 103.92 C 75.55 108.23 80.97 108.57 85.00 108.00
C 85.57 104.30 84.93 101.45 81.00 101.00
C 81.00 97.67 81.00 94.33 81.00 91.00
C 85.64 92.33 86.84 88.93 86.00 85.00
C 82.15 85.97 79.90 83.89 81.00 80.00 Z"/>
</g>
<g fill="None" fill-opacity="0.0" stroke="black" stroke-width="1"><path d="
M 146.00 85.00 
C 139.07 86.69 142.11 76.72 134.00 80.00
C 135.45 85.45 128.92 85.23 131.00 91.00
C 137.02 91.40 132.51 99.36 134.23 103.77 C 135.95 108.18 141.65 108.55 146.00 108.00
C 146.28 104.93 146.44 100.54 142.00 102.00
C 140.72 98.55 140.96 94.78 141.00 91.00
C 145.64 92.33 146.84 88.93 146.00 85.00 Z"/>
</g>
<g fill="None" fill-opacity="0.0" stroke="black" stroke-width="1"><path d="
M 67.00 91.00 
C 70.49 83.40 62.22 85.34 57.03 85.03 C 51.83 84.71 49.61 93.17 52.25 95.75 C 54.88 98.34 63.82 100.62 59.02 102.98 C 54.23 105.33 49.51 97.39 50.00 107.00
C 64.93 115.71 77.35 94.44 58.00 92.00
C 59.60 88.01 64.15 91.13 67.00 91.00 Z"/>
</g>
<g fill="None" fill-opacity="0.0" stroke="black" stroke-width="1"><path d="
M 110.00 108.00 
C 109.02 102.02 112.44 90.92 107.23 86.77 C 102.02 82.62 88.78 83.24 92.00 92.00
C 95.53 90.93 100.08 89.90 103.00 93.00
C 98.10 93.24 82.86 96.40 88.25 104.75 C 93.63 113.11 103.47 103.50 110.00 108.00
M 103.00 100.00 
C 95.84 108.59 92.76 94.60 103.00 100.00 Z"/>
</g>
<g fill="None" fill-opacity="0.0" stroke="black" stroke-width="1"><path d="
M 123.00 88.00 
C 123.87 83.13 117.79 85.57 115.00 85.00
C 116.99 92.96 109.25 111.20 123.00 108.00
C 123.85 104.13 121.40 97.24 124.10 94.10 C 126.81 90.96 132.24 91.38 130.00 85.00
C 126.90 84.13 125.20 86.47 123.00 88.00 Z"/>
</g>
<g fill="None" fill-opacity="0.0" stroke="black" stroke-width="1"><path d="
M 103.00 100.00 
C 92.76 94.60 95.84 108.59 103.00 100.00 Z"/>
</g>
</svg>