<svg xmlns="http://www.w3.org/2000/svg" xmlns:v="https://svgstorm.com"
viewBox = "0 0 205 67"
width="205"
height="67">
<g fill="None" fill-opacity="0.0" stroke="black" stroke-width="1"><path d="
M 0.00 67.00 
L 205.00 67.00
L 205.00 0.00
L 0.00 0.00
L 0.00 67.00
M 77.00 6.00 
C 75.79 20.26 75.09 35.77 77.00 50.00
C 74.00 50.00 71.00 50.00 68.00 50.00
C 67.39 35.73 69.25 20.85 67.00 7.00
C 69.90 5.10 73.70 6.38 77.00 6.00
M 92.00 7.00 
C 97.26 9.57 91.90 20.08 86.33 16.67 C 80.76 13.26 85.60 3.88 92.00 7.00
M 28.00 10.00 
C 33.08 23.08 12.98 10.93 11.25 18.25 C 9.53 25.58 22.91 25.60 26.75 30.25 C 30.58 34.90 33.16 43.81 26.25 48.25 C 19.34 52.69 9.84 51.30 2.00 50.00
C 2.76 47.71 2.81 45.19 4.00 43.00
C 12.17 50.28 27.06 40.77 18.30 35.70 C 9.55 30.63 0.64 28.31 3.33 17.33 C 6.02 6.35 20.60 9.26 28.00 10.00
M 156.00 9.00 
C 181.18 14.22 170.13 58.39 145.00 51.00 C 119.87 43.61 131.40 3.91 156.00 9.00
M 201.00 17.00 
C 195.80 12.58 179.71 17.92 185.75 23.25 C 191.80 28.57 199.21 26.79 202.77 34.23 C 206.33 41.67 201.08 49.80 193.93 50.93 C 186.77 52.05 171.52 53.40 176.00 43.00
C 185.49 51.01 200.89 39.27 189.92 35.08 C 178.95 30.88 173.23 24.26 177.77 14.77 C 182.31 5.28 203.62 6.42 201.00 17.00
M 92.00 20.00 
C 92.63 29.92 90.71 40.52 93.00 50.00
C 90.00 50.00 87.00 50.00 84.00 50.00
C 84.15 40.00 85.51 30.66 83.00 21.00
C 86.26 21.60 88.91 20.17 92.00 20.00
M 44.00 21.00 
C 45.01 27.83 47.68 34.21 49.00 41.00
C 54.14 34.57 50.24 17.83 63.00 21.00
C 54.86 34.83 57.03 62.31 37.00 64.00
C 33.71 52.99 44.85 62.72 44.92 51.92 C 44.99 41.13 36.94 31.11 34.00 21.00
C 37.33 21.00 40.67 21.00 44.00 21.00
M 114.00 31.00 
C 115.54 25.11 118.45 18.63 126.00 21.00
C 124.20 25.44 121.21 30.17 117.00 33.00
C 119.39 38.99 125.33 43.58 127.00 50.00
C 117.87 52.94 115.54 45.07 112.00 39.00
C 108.83 41.64 107.33 46.16 106.00 50.00
C 103.00 50.00 100.00 50.00 97.00 50.00
C 100.21 44.75 103.46 39.10 108.00 35.00
C 104.80 30.18 100.36 26.28 98.00 21.00
C 107.60 17.87 109.33 25.55 114.00 31.00 Z"/>
</g>
<g fill="None" fill-opacity="0.0" stroke="black" stroke-width="1"><path d="
M 77.00 6.00 
C 73.70 6.38 69.90 5.10 67.00 7.00
C 69.25 20.85 67.39 35.73 68.00 50.00
C 71.00 50.00 74.00 50.00 77.00 50.00
C 75.09 35.77 75.79 20.26 77.00 6.00 Z"/>
</g>
<g fill="None" fill-opacity="0.0" stroke="black" stroke-width="1"><path d="
M 92.00 7.00 
C 85.60 3.88 80.76 13.26 86.33 16.67 C 91.90 20.08 97.26 9.57 92.00 7.00 Z"/>
</g>
<g fill="None" fill-opacity="0.0" stroke="black" stroke-width="1"><path d="
M 28.00 10.00 
C 20.60 9.26 6.02 6.35 3.33 17.33 C 0.64 28.31 9.55 30.63 18.30 35.70 C 27.06 40.77 12.17 50.28 4.00 43.00
C 2.81 45.19 2.76 47.71 2.00 50.00
C 9.84 51.30 19.34 52.69 26.25 48.25 C 33.16 43.81 30.58 34.90 26.75 30.25 C 22.91 25.60 9.53 25.58 11.25 18.25 C 12.98 10.93 33.08 23.08 28.00 10.00 Z"/>
</g>
<g fill="None" fill-opacity="0.0" stroke="black" stroke-width="1"><path d="
M 156.00 9.00 
C 131.40 3.91 119.87 43.61 145.00 51.00 C 170.13 58.39 181.18 14.22 156.00 9.00
M 153.00 16.00 
C 166.76 18.49 163.87 46.95 149.00 44.00 C 134.13 41.05 137.77 13.25 153.00 16.00 Z"/>
</g>
<g fill="None" fill-opacity="0.0" stroke="black" stroke-width="1"><path d="
M 201.00 17.00 
C 203.62 6.42 182.31 5.28 177.77 14.77 C 173.23 24.26 178.95 30.88 189.92 35.08 C 200.89 39.27 185.49 51.01 176.00 43.00
C 171.52 53.40 186.77 52.05 193.93 50.93 C 201.08 49.80 206.33 41.67 202.77 34.23 C 199.21 26.79 191.80 28.57 185.75 23.25 C 179.71 17.92 195.80 12.58 201.00 17.00 Z"/>
</g>
<g fill="None" fill-opacity="0.0" stroke="black" stroke-width="1"><path d="
M 153.00 16.00 
C 137.77 13.25 134.13 41.05 149.00 44.00 C 163.87 46.95 166.76 18.49 153.00 16.00 Z"/>
</g>
<g fill="None" fill-opacity="0.0" stroke="black" stroke-width="1"><path d="
M 92.00 20.00 
C 88.91 20.17 86.26 21.60 83.00 21.00
C 85.51 30.66 84.15 40.00 84.00 50.00
C 87.00 50.00 90.00 50.00 93.00 50.00
C 90.71 40.52 92.63 29.92 92.00 20.00 Z"/>
</g>
<g fill="None" fill-opacity="0.0" stroke="black" stroke-width="1"><path d="
M 44.00 21.00 
C 40.67 21.00 37.33 21.00 34.00 21.00
C 36.94 31.11 44.99 41.13 44.92 51.92 C 44.85 62.72 33.71 52.99 37.00 64.00
C 57.03 62.31 54.86 34.83 63.00 21.00
C 50.24 17.83 54.14 34.57 49.00 41.00
C 47.68 34.21 45.01 27.83 44.00 21.00 Z"/>
</g>
<g fill="None" fill-opacity="0.0" stroke="black" stroke-width="1"><path d="
M 114.00 31.00 
C 109.33 25.55 107.60 17.87 98.00 21.00
C 100.36 26.28 104.80 30.18 108.00 35.00
C 103.46 39.10 100.21 44.75 97.00 50.00
C 100.00 50.00 103.00 50.00 106.00 50.00
C 107.33 46.16 108.83 41.64 112.00 39.00
C 115.54 45.07 117.87 52.94 127.00 50.00
C 125.33 43.58 119.39 38.99 117.00 33.00
C 121.21 30.17 124.20 25.44 126.00 21.00
C 118.45 18.63 115.54 25.11 114.00 31.00 Z"/>
</g>
</svg>