<svg xmlns="http://www.w3.org/2000/svg" xmlns:v="https://svgstorm.com"
viewBox = "0 0 1270 1273"
width="1270"
height="1273">
<g fill="None" fill-opacity="0.0" stroke="black" stroke-width="1"><path d="
M 0.00 3.00 
C 210.33 3.00 420.67 3.00 631.00 3.00
C 631.00 2.00 631.00 1.00 631.00 0.00
L 0.00 0.00
L 0.00 3.00 Z"/>
</g>
<g fill="None" fill-opacity="0.0" stroke="black" stroke-width="1"><path d="
M 0.00 3.00 
L 0.00 522.00
C 21.63 389.03 80.85 259.04 186.00 167.00
C 185.82 169.59 189.36 169.73 191.00 171.00
C 90.73 270.93 26.76 398.17 0.00 533.00
L 0.00 1273.00
L 1270.00 1273.00
L 1270.00 3.00
C 1060.00 3.00 850.00 3.00 640.00 3.00
C 640.00 2.00 640.00 1.00 640.00 0.00
L 638.00 0.00
C 638.60 2.91 631.43 3.11 632.00 0.00
L 631.00 0.00
C 631.00 1.00 631.00 2.00 631.00 3.00
C 420.67 3.00 210.33 3.00 0.00 3.00
M 658.00 6.00 
C 697.34 9.81 745.38 14.58 782.67 24.33 C 819.96 34.08 855.43 45.64 889.08 60.92 C 922.72 76.21 951.56 92.08 981.23 111.77 C 1010.90 131.46 1035.12 150.50 1061.25 174.75 C 1087.38 199.00 1108.34 220.89 1130.25 248.75 C 1152.16 276.60 1169.37 303.15 1186.92 335.08 C 1204.48 367.00 1218.16 398.58 1230.32 434.68 C 1242.49 470.77 1251.03 512.04 1256.00 552.00 C 1260.97 591.96 1262.09 647.21 1259.00 688.00 C 1255.91 728.79 1247.37 771.36 1236.22 808.22 C 1225.07 845.09 1211.94 877.61 1195.23 910.23 C 1178.52 942.85 1162.69 971.01 1141.25 999.25 C 1119.80 1027.48 1100.59 1050.99 1074.75 1075.75 C 1048.91 1100.51 1025.87 1120.36 996.75 1140.75 C 967.63 1161.14 939.38 1177.13 906.31 1193.31 C 873.23 1209.48 839.89 1222.08 802.93 1232.93 C 765.96 1243.78 722.51 1251.69 682.00 1255.00 C 641.49 1258.31 586.28 1257.40 547.00 1251.00 C 507.72 1244.60 468.07 1235.01 432.33 1222.67 C 396.58 1210.34 365.04 1195.94 333.31 1178.70 C 301.57 1161.45 274.98 1143.53 247.25 1121.75 C 219.53 1099.96 196.79 1079.46 172.75 1053.25 C 148.72 1027.03 129.03 1003.32 109.75 973.25 C 90.46 943.19 74.31 914.80 59.23 880.77 C 44.14 846.74 33.48 811.03 24.02 772.98 C 14.56 734.92 9.67 686.64 9.00 645.00 C 8.33 603.36 12.09 552.18 20.78 513.78 C 29.47 475.38 39.12 437.94 53.32 403.32 C 67.52 368.70 82.25 338.52 100.77 307.77 C 119.29 277.02 137.22 251.12 160.30 224.30 C 183.38 197.48 205.27 176.01 232.08 153.08 C 258.89 130.16 284.04 111.14 315.08 93.08 C 346.13 75.02 376.83 59.95 412.03 47.02 C 447.22 34.10 485.30 22.33 524.67 16.67 C 564.04 11.01 615.62 1.90 658.00 6.00
M 981.00 84.00 
C 1121.26 168.55 1231.77 314.64 1260.00 473.00
C 1248.53 433.50 1231.53 389.59 1213.23 352.77 C 1194.93 315.95 1174.59 281.26 1149.75 249.25 C 1124.90 217.25 1099.74 189.66 1070.25 161.75 C 1040.75 133.85 1006.03 113.08 976.00 88.00
C 978.02 86.79 979.55 85.55 981.00 84.00
M 1266.00 769.00 
C 1264.44 787.62 1257.82 807.23 1254.07 825.07 C 1250.32 842.92 1244.01 860.53 1238.22 877.22 C 1232.44 893.92 1225.52 909.60 1218.08 925.08 C 1210.64 940.55 1202.58 954.82 1194.08 969.08 C 1185.58 983.34 1176.97 997.20 1167.08 1010.08 C 1157.19 1022.97 1147.75 1036.10 1136.75 1047.75 C 1125.75 1059.41 1115.98 1078.29 1099.00 1077.00
C 1180.21 988.96 1236.39 882.20 1266.00 769.00
M 849.00 1237.00 
C 828.89 1246.30 805.98 1251.88 784.00 1257.00
C 805.18 1250.02 827.61 1244.46 849.00 1237.00 Z"/>
</g>
<g fill="None" fill-opacity="0.0" stroke="black" stroke-width="1"><path d="
M 638.00 0.00 
L 632.00 0.00
C 631.43 3.11 638.60 2.91 638.00 0.00 Z"/>
</g>
<g fill="None" fill-opacity="0.0" stroke="black" stroke-width="1"><path d="
M 1270.00 3.00 
L 1270.00 0.00
L 640.00 0.00
C 640.00 1.00 640.00 2.00 640.00 3.00
C 850.00 3.00 1060.00 3.00 1270.00 3.00 Z"/>
</g>
<g fill="None" fill-opacity="0.0" stroke="black" stroke-width="1"><path d="
M 658.00 6.00 
C 615.62 1.90 564.04 11.01 524.67 16.67 C 485.30 22.33 447.22 34.10 412.03 47.02 C 376.83 59.95 346.13 75.02 315.08 93.08 C 284.04 111.14 258.89 130.16 232.08 153.08 C 205.27 176.01 183.38 197.48 160.30 224.30 C 137.22 251.12 119.29 277.02 100.77 307.77 C 82.25 338.52 67.52 368.70 53.32 403.32 C 39.12 437.94 29.47 475.38 20.78 513.78 C 12.09 552.18 8.33 603.36 9.00 645.00 C 9.67 686.64 14.56 734.92 24.02 772.98 C 33.48 811.03 44.14 846.74 59.23 880.77 C 74.31 914.80 90.46 943.19 109.75 973.25 C 129.03 1003.32 148.72 1027.03 172.75 1053.25 C 196.79 1079.46 219.53 1099.96 247.25 1121.75 C 274.98 1143.53 301.57 1161.45 333.31 1178.70 C 365.04 1195.94 396.58 1210.34 432.33 1222.67 C 468.07 1235.01 507.72 1244.60 547.00 1251.00 C 586.28 1257.40 641.49 1258.31 682.00 1255.00 C 722.51 1251.69 765.96 1243.78 802.93 1232.93 C 839.89 1222.08 873.23 1209.48 906.31 1193.31 C 939.38 1177.13 967.63 1161.14 996.75 1140.75 C 1025.87 1120.36 1048.91 1100.51 1074.75 1075.75 C 1100.59 1050.99 1119.80 1027.48 1141.25 999.25 C 1162.69 971.01 1178.52 942.85 1195.23 910.23 C 1211.94 877.61 1225.07 845.09 1236.22 808.22 C 1247.37 771.36 1255.91 728.79 1259.00 688.00 C 1262.09 647.21 1260.97 591.96 1256.00 552.00 C 1251.03 512.04 1242.49 470.77 1230.32 434.68 C 1218.16 398.58 1204.48 367.00 1186.92 335.08 C 1169.37 303.15 1152.16 276.60 1130.25 248.75 C 1108.34 220.89 1087.38 199.00 1061.25 174.75 C 1035.12 150.50 1010.90 131.46 981.23 111.77 C 951.56 92.08 922.72 76.21 889.08 60.92 C 855.43 45.64 819.96 34.08 782.67 24.33 C 745.38 14.58 697.34 9.81 658.00 6.00
M 650.00 33.00 
C 686.87 36.57 732.16 39.72 767.07 48.93 C 801.99 58.14 836.28 67.40 868.08 80.92 C 899.87 94.45 927.99 108.09 956.08 125.92 C 984.17 143.75 1007.80 160.83 1032.75 182.25 C 1057.70 203.66 1077.36 224.52 1098.25 249.75 C 1119.15 274.98 1136.27 298.88 1153.30 327.70 C 1170.33 356.51 1183.78 384.73 1196.78 417.22 C 1209.77 449.72 1218.46 485.66 1225.00 522.00 C 1231.54 558.34 1235.62 607.23 1235.00 646.00 C 1234.38 684.77 1228.28 728.48 1220.07 764.07 C 1211.87 799.67 1201.74 833.20 1188.03 865.03 C 1174.31 896.85 1159.35 923.70 1141.75 951.75 C 1124.14 979.80 1106.35 1003.01 1084.25 1027.25 C 1062.14 1051.49 1042.51 1072.20 1016.75 1092.75 C 991.00 1113.30 967.30 1130.42 938.25 1147.25 C 909.20 1164.09 880.57 1177.28 847.98 1189.98 C 815.38 1202.67 780.89 1212.56 744.78 1219.78 C 708.66 1227.00 659.72 1230.89 621.00 1230.00 C 582.28 1229.11 539.50 1222.19 503.93 1214.07 C 468.35 1205.95 435.60 1194.86 403.77 1181.23 C 371.95 1167.60 343.93 1154.01 315.92 1136.08 C 287.91 1118.15 264.09 1101.19 239.25 1079.75 C 214.41 1058.30 194.47 1037.76 173.25 1012.75 C 152.03 987.75 135.32 963.50 118.23 934.77 C 101.14 906.04 87.17 877.67 75.02 844.98 C 62.88 812.28 52.47 777.51 45.67 741.33 C 38.87 705.15 34.77 655.73 36.00 617.00 C 37.23 578.27 42.62 534.57 51.00 499.00 C 59.37 463.43 69.99 430.31 83.32 398.32 C 96.65 366.33 111.02 338.72 128.30 310.31 C 145.59 281.89 163.54 258.86 184.92 233.92 C 206.30 208.98 227.53 189.41 252.75 168.75 C 277.97 148.10 302.06 130.55 331.08 114.08 C 360.09 97.60 389.11 83.29 422.02 72.02 C 454.94 60.76 490.12 48.51 526.67 43.67 C 563.23 38.83 610.92 29.22 650.00 33.00 Z"/>
</g>
<g fill="None" fill-opacity="0.0" stroke="black" stroke-width="1"><path d="
M 650.00 33.00 
C 610.92 29.22 563.23 38.83 526.67 43.67 C 490.12 48.51 454.94 60.76 422.02 72.02 C 389.11 83.29 360.09 97.60 331.08 114.08 C 302.06 130.55 277.97 148.10 252.75 168.75 C 227.53 189.41 206.30 208.98 184.92 233.92 C 163.54 258.86 145.59 281.89 128.30 310.31 C 111.02 338.72 96.65 366.33 83.32 398.32 C 69.99 430.31 59.37 463.43 51.00 499.00 C 42.62 534.57 37.23 578.27 36.00 617.00 C 34.77 655.73 38.87 705.15 45.67 741.33 C 52.47 777.51 62.88 812.28 75.02 844.98 C 87.17 877.67 101.14 906.04 118.23 934.77 C 135.32 963.50 152.03 987.75 173.25 1012.75 C 194.47 1037.76 214.41 1058.30 239.25 1079.75 C 264.09 1101.19 287.91 1118.15 315.92 1136.08 C 343.93 1154.01 371.95 1167.60 403.77 1181.23 C 435.60 1194.86 468.35 1205.95 503.93 1214.07 C 539.50 1222.19 582.28 1229.11 621.00 1230.00 C 659.72 1230.89 708.66 1227.00 744.78 1219.78 C 780.89 1212.56 815.38 1202.67 847.98 1189.98 C 880.57 1177.28 909.20 1164.09 938.25 1147.25 C 967.30 1130.42 991.00 1113.30 1016.75 1092.75 C 1042.51 1072.20 1062.14 1051.49 1084.25 1027.25 C 1106.35 1003.01 1124.14 979.80 1141.75 951.75 C 1159.35 923.70 1174.31 896.85 1188.03 865.03 C 1201.74 833.20 1211.87 799.67 1220.07 764.07 C 1228.28 728.48 1234.38 684.77 1235.00 646.00 C 1235.62 607.23 1231.54 558.34 1225.00 522.00 C 1218.46 485.66 1209.77 449.72 1196.78 417.22 C 1183.78 384.73 1170.33 356.51 1153.30 327.70 C 1136.27 298.88 1119.15 274.98 1098.25 249.75 C 1077.36 224.52 1057.70 203.66 1032.75 182.25 C 1007.80 160.83 984.17 143.75 956.08 125.92 C 927.99 108.09 899.87 94.45 868.08 80.92 C 836.28 67.40 801.99 58.14 767.07 48.93 C 732.16 39.72 686.87 36.57 650.00 33.00
M 921.00 349.00 
C 940.81 374.45 960.57 394.68 977.31 423.70 C 994.04 452.71 1007.79 480.51 1017.77 514.23 C 1027.75 547.95 1033.51 591.78 1034.00 629.00 C 1034.49 666.22 1028.49 710.95 1018.68 744.68 C 1008.87 778.40 996.31 807.16 979.23 836.23 C 962.15 865.30 946.60 887.63 922.00 911.00
C 960.99 944.95 973.46 1002.05 952.68 1048.68 C 931.89 1095.31 878.60 1119.89 829.98 1112.02 C 781.35 1104.16 742.96 1065.07 735.00 1017.00
C 723.44 1018.05 713.69 1021.97 701.98 1022.98 C 690.26 1023.99 677.94 1026.48 665.98 1026.98 C 654.02 1027.47 640.05 1028.60 628.00 1028.00 C 615.95 1027.40 602.71 1026.01 591.00 1025.00 C 579.29 1023.99 567.95 1021.14 556.93 1019.07 C 545.91 1017.01 536.11 1014.08 525.78 1011.22 C 515.45 1008.36 505.56 1004.91 495.92 1001.08 C 486.29 997.24 476.25 994.47 467.31 989.70 C 458.36 984.92 450.01 981.25 441.31 976.70 C 432.60 972.14 425.12 966.01 416.75 961.25 C 408.39 956.48 400.85 950.45 393.25 944.75 C 385.64 939.05 378.69 933.77 371.75 927.25 C 364.81 920.73 357.32 915.26 350.75 908.25 C 344.19 901.24 337.42 894.99 331.25 887.75 C 325.07 880.51 320.18 873.29 314.23 865.77 C 308.28 858.25 303.43 849.99 298.08 841.92 C 292.73 833.85 288.11 825.08 283.69 816.31 C 279.28 807.53 274.85 799.17 271.08 789.92 C 267.30 780.68 263.90 770.32 260.08 760.92 C 256.25 751.53 257.37 736.43 245.78 741.78 C 234.18 747.12 222.96 745.51 211.00 747.00 C 199.04 748.49 186.19 744.89 175.78 742.22 C 165.36 739.56 156.68 736.28 147.92 731.08 C 139.17 725.87 132.85 720.56 125.75 713.25 C 118.66 705.93 112.66 700.06 107.70 691.30 C 102.74 682.55 98.51 674.20 96.02 663.98 C 93.54 653.75 91.69 639.03 92.00 628.00 C 92.31 616.97 95.09 604.29 98.32 594.32 C 101.55 584.35 106.39 577.18 111.75 568.75 C 117.11 560.33 122.70 554.18 130.25 547.25 C 137.79 540.32 144.74 535.60 153.74 530.74 C 162.75 525.89 171.75 522.80 182.22 520.22 C 192.69 517.64 206.86 516.41 218.00 518.00 C 229.15 519.59 240.35 521.46 251.00 525.00
C 261.42 487.92 277.10 447.76 298.30 415.31 C 319.51 382.85 340.98 357.38 371.25 331.25 C 401.52 305.12 430.09 287.71 467.69 270.69 C 505.30 253.68 548.21 242.30 592.00 238.00 C 635.79 233.70 692.56 236.19 735.00 248.00
C 742.96 168.12 837.52 125.24 905.23 162.77 C 972.94 200.30 983.16 301.38 921.00 349.00 Z"/>
</g>
<g fill="None" fill-opacity="0.0" stroke="black" stroke-width="1"><path d="
M 981.00 84.00 
C 979.55 85.55 978.02 86.79 976.00 88.00
C 1006.03 113.08 1040.75 133.85 1070.25 161.75 C 1099.74 189.66 1124.90 217.25 1149.75 249.25 C 1174.59 281.26 1194.93 315.95 1213.23 352.77 C 1231.53 389.59 1248.53 433.50 1260.00 473.00
C 1231.77 314.64 1121.26 168.55 981.00 84.00 Z"/>
</g>
<g fill="None" fill-opacity="0.0" stroke="black" stroke-width="1"><path d="
M 921.00 349.00 
C 983.16 301.38 972.94 200.30 905.23 162.77 C 837.52 125.24 742.96 168.12 735.00 248.00
C 692.56 236.19 635.79 233.70 592.00 238.00 C 548.21 242.30 505.30 253.68 467.69 270.69 C 430.09 287.71 401.52 305.12 371.25 331.25 C 340.98 357.38 319.51 382.85 298.30 415.31 C 277.10 447.76 261.42 487.92 251.00 525.00
C 240.35 521.46 229.15 519.59 218.00 518.00 C 206.86 516.41 192.69 517.64 182.22 520.22 C 171.75 522.80 162.75 525.89 153.74 530.74 C 144.74 535.60 137.79 540.32 130.25 547.25 C 122.70 554.18 117.11 560.33 111.75 568.75 C 106.39 577.18 101.55 584.35 98.32 594.32 C 95.09 604.29 92.31 616.97 92.00 628.00 C 91.69 639.03 93.54 653.75 96.02 663.98 C 98.51 674.20 102.74 682.55 107.70 691.30 C 112.66 700.06 118.66 705.93 125.75 713.25 C 132.85 720.56 139.17 725.87 147.92 731.08 C 156.68 736.28 165.36 739.56 175.78 742.22 C 186.19 744.89 199.04 748.49 211.00 747.00 C 222.96 745.51 234.18 747.12 245.78 741.78 C 257.37 736.43 256.25 751.53 260.08 760.92 C 263.90 770.32 267.30 780.68 271.08 789.92 C 274.85 799.17 279.28 807.53 283.69 816.31 C 288.11 825.08 292.73 833.85 298.08 841.92 C 303.43 849.99 308.28 858.25 314.23 865.77 C 320.18 873.29 325.07 880.51 331.25 887.75 C 337.42 894.99 344.19 901.24 350.75 908.25 C 357.32 915.26 364.81 920.73 371.75 927.25 C 378.69 933.77 385.64 939.05 393.25 944.75 C 400.85 950.45 408.39 956.48 416.75 961.25 C 425.12 966.01 432.60 972.14 441.31 976.70 C 450.01 981.25 458.36 984.92 467.31 989.70 C 476.25 994.47 486.29 997.24 495.92 1001.08 C 505.56 1004.91 515.45 1008.36 525.78 1011.22 C 536.11 1014.08 545.91 1017.01 556.93 1019.07 C 567.95 1021.14 579.29 1023.99 591.00 1025.00 C 602.71 1026.01 615.95 1027.40 628.00 1028.00 C 640.05 1028.60 654.02 1027.47 665.98 1026.98 C 677.94 1026.48 690.26 1023.99 701.98 1022.98 C 713.69 1021.97 723.44 1018.05 735.00 1017.00
C 742.96 1065.07 781.35 1104.16 829.98 1112.02 C 878.60 1119.89 931.89 1095.31 952.68 1048.68 C 973.46 1002.05 960.99 944.95 922.00 911.00
C 946.60 887.63 962.15 865.30 979.23 836.23 C 996.31 807.16 1008.87 778.40 1018.68 744.68 C 1028.49 710.95 1034.49 666.22 1034.00 629.00 C 1033.51 591.78 1027.75 547.95 1017.77 514.23 C 1007.79 480.51 994.04 452.71 977.31 423.70 C 960.57 394.68 940.81 374.45 921.00 349.00
M 865.00 183.00 
C 923.94 192.57 950.17 268.84 911.75 313.75 C 873.33 358.66 799.69 352.19 775.70 295.31 C 751.70 238.42 800.57 172.54 865.00 183.00
M 997.00 612.00 
C 985.19 612.02 973.86 611.98 962.00 612.00 C 950.14 612.02 937.91 611.96 926.00 612.00 C 914.09 612.04 901.91 611.91 890.00 612.00 C 878.09 612.09 883.74 594.17 880.67 585.33 C 877.60 576.49 877.28 564.78 874.02 555.98 C 870.77 547.17 867.99 538.10 864.23 529.77 C 860.47 521.44 856.90 513.39 852.23 505.77 C 847.56 498.16 843.40 490.89 838.08 483.92 C 832.76 476.94 827.64 470.73 821.75 464.25 C 815.87 457.77 809.74 452.39 803.30 446.70 C 796.87 441.00 791.08 435.93 783.92 431.08 C 776.76 426.23 769.92 421.32 762.25 416.75 C 754.59 412.17 746.65 408.79 738.31 404.69 C 729.96 400.60 721.45 397.88 712.32 394.68 C 703.20 391.48 693.90 389.25 683.99 387.01 C 674.08 384.76 662.65 383.88 652.00 383.00 C 641.35 382.12 628.59 381.65 617.98 382.98 C 607.36 384.30 595.96 384.57 585.99 386.99 C 576.02 389.41 567.07 391.44 557.78 394.78 C 548.48 398.11 540.65 400.35 532.00 405.00
C 516.10 371.23 495.71 339.03 480.00 305.00
C 491.82 300.81 501.66 295.81 514.02 292.02 C 526.39 288.24 538.15 284.13 551.22 281.22 C 564.30 278.32 579.11 276.13 593.00 275.00 C 606.89 273.87 622.58 271.40 637.00 272.00 C 651.42 272.60 667.63 273.78 682.00 275.00 C 696.37 276.22 707.55 281.57 722.01 282.99 C 736.47 284.41 735.63 300.45 740.32 311.68 C 745.01 322.91 751.57 331.34 759.25 340.75 C 766.93 350.17 774.86 356.42 785.08 362.92 C 795.30 369.42 806.06 373.76 818.02 376.98 C 829.99 380.20 848.77 381.05 861.00 380.00 C 873.23 378.95 887.70 368.93 896.25 378.75 C 904.79 388.57 910.42 394.37 918.25 403.75 C 926.07 413.13 931.63 421.76 938.30 431.70 C 944.98 441.64 950.67 451.00 956.31 461.70 C 961.94 472.40 966.65 482.18 971.32 493.68 C 976.00 505.18 980.53 516.54 983.93 529.07 C 987.32 541.61 990.51 554.86 992.78 568.22 C 995.05 581.59 996.32 598.02 997.00 612.00
M 435.00 330.00 
C 438.71 339.43 444.75 347.65 449.30 356.70 C 453.86 365.74 459.04 375.25 463.92 384.08 C 468.81 392.91 474.02 401.55 478.75 410.25 C 483.49 418.94 492.25 429.40 482.25 435.25 C 472.24 441.10 468.44 447.15 460.25 454.25 C 452.06 461.35 447.38 468.75 440.70 476.70 C 434.01 484.64 429.34 492.94 423.70 501.70 C 418.06 510.45 413.89 518.77 409.68 528.68 C 405.46 538.59 401.20 548.24 398.07 559.07 C 394.95 569.90 392.74 581.19 391.00 593.00 C 389.26 604.81 387.76 619.38 388.00 632.00 C 388.24 644.62 388.37 659.85 390.33 671.67 C 392.29 683.49 394.87 694.21 397.93 705.07 C 400.98 715.94 404.97 726.03 408.98 736.03 C 412.98 746.02 418.12 753.62 423.75 762.25 C 429.39 770.88 433.63 779.67 440.77 787.23 C 447.91 794.79 451.89 802.84 460.75 809.25 C 469.62 815.65 471.73 823.01 482.75 828.25 C 493.77 833.49 490.12 843.19 483.23 852.23 C 476.34 861.27 474.21 869.34 468.23 878.23 C 462.25 887.12 457.81 895.53 452.69 904.70 C 447.58 913.86 441.96 922.37 438.00 932.00
C 426.20 925.33 415.49 915.95 404.75 907.25 C 394.02 898.55 384.17 889.88 374.25 879.75 C 364.32 869.62 356.20 859.72 347.25 848.75 C 338.29 837.78 331.31 826.34 324.23 813.77 C 317.15 801.20 310.53 788.80 305.08 774.92 C 299.63 761.05 294.96 746.58 290.07 731.93 C 285.19 717.28 301.95 710.43 309.75 697.75 C 317.55 685.08 323.48 672.14 326.93 656.93 C 330.38 641.72 329.04 619.00 326.07 603.93 C 323.11 588.85 315.48 576.58 307.75 564.25 C 300.03 551.91 282.74 545.44 287.32 531.32 C 291.90 517.20 296.14 501.43 301.98 487.98 C 307.81 474.52 313.97 461.42 320.92 448.92 C 327.88 436.43 335.26 424.95 343.75 413.75 C 352.25 402.56 360.35 392.37 370.25 382.25 C 380.14 372.13 389.48 363.06 400.25 354.25 C 411.02 345.43 422.63 336.03 435.00 330.00
M 648.00 417.00 
C 734.77 425.40 814.27 479.00 839.98 567.02 C 865.68 655.05 834.87 755.91 757.25 809.25 C 679.63 862.59 573.43 857.20 500.25 798.75 C 427.08 740.29 403.58 632.97 437.77 549.77 C 471.96 466.57 557.05 408.20 648.00 417.00
M 218.00 551.00 
C 278.69 558.34 312.44 631.80 275.70 680.70 C 238.95 729.59 163.00 724.75 135.03 669.97 C 107.05 615.19 153.34 543.18 218.00 551.00
M 998.00 659.00 
C 991.72 746.30 954.61 828.64 891.00 891.00
C 881.36 886.60 871.57 885.31 861.00 884.00 C 850.43 882.69 836.13 882.65 825.99 884.99 C 815.86 887.34 806.64 890.32 797.77 894.77 C 788.90 899.22 781.96 903.40 774.30 909.30 C 766.65 915.21 762.57 922.22 755.75 928.75 C 748.93 935.28 748.11 944.99 742.03 952.03 C 735.94 959.06 739.11 974.71 731.92 979.92 C 724.72 985.12 710.35 983.56 700.98 986.98 C 691.61 990.39 677.69 989.14 667.00 991.00 C 656.31 992.86 641.43 991.68 630.00 992.00 C 618.57 992.32 605.88 991.44 595.00 990.00 C 584.11 988.57 572.77 986.76 562.33 984.67 C 551.89 982.58 541.93 979.62 531.99 977.01 C 522.05 974.40 513.65 970.16 504.31 966.69 C 494.96 963.23 487.15 958.71 478.00 955.00
C 496.10 923.16 514.85 891.80 533.00 860.00
C 605.39 894.17 704.26 885.47 769.70 842.70 C 835.13 799.92 874.03 733.88 882.00 659.00
C 920.67 659.00 959.33 659.00 998.00 659.00
M 854.00 920.00 
C 896.47 924.11 931.75 959.18 930.07 1003.07 C 928.40 1046.97 890.19 1081.71 846.00 1081.00 C 801.81 1080.29 766.67 1040.06 769.00 997.00 C 771.33 953.94 809.45 915.69 854.00 920.00 Z"/>
</g>
<g fill="None" fill-opacity="0.0" stroke="black" stroke-width="1"><path d="
M 0.00 522.00 
L 0.00 533.00
C 26.76 398.17 90.73 270.93 191.00 171.00
C 189.36 169.73 185.82 169.59 186.00 167.00
C 80.85 259.04 21.63 389.03 0.00 522.00 Z"/>
</g>
<g fill="None" fill-opacity="0.0" stroke="black" stroke-width="1"><path d="
M 865.00 183.00 
C 800.57 172.54 751.70 238.42 775.70 295.31 C 799.69 352.19 873.33 358.66 911.75 313.75 C 950.17 268.84 923.94 192.57 865.00 183.00 Z"/>
</g>
<g fill="None" fill-opacity="0.0" stroke="black" stroke-width="1"><path d="
M 997.00 612.00 
C 996.32 598.02 995.05 581.59 992.78 568.22 C 990.51 554.86 987.32 541.61 983.93 529.07 C 980.53 516.54 976.00 505.18 971.32 493.68 C 966.65 482.18 961.94 472.40 956.31 461.70 C 950.67 451.00 944.98 441.64 938.30 431.70 C 931.63 421.76 926.07 413.13 918.25 403.75 C 910.42 394.37 904.79 388.57 896.25 378.75 C 887.70 368.93 873.23 378.95 861.00 380.00 C 848.77 381.05 829.99 380.20 818.02 376.98 C 806.06 373.76 795.30 369.42 785.08 362.92 C 774.86 356.42 766.93 350.17 759.25 340.75 C 751.57 331.34 745.01 322.91 740.32 311.68 C 735.63 300.45 736.47 284.41 722.01 282.99 C 707.55 281.57 696.37 276.22 682.00 275.00 C 667.63 273.78 651.42 272.60 637.00 272.00 C 622.58 271.40 606.89 273.87 593.00 275.00 C 579.11 276.13 564.30 278.32 551.22 281.22 C 538.15 284.13 526.39 288.24 514.02 292.02 C 501.66 295.81 491.82 300.81 480.00 305.00
C 495.71 339.03 516.10 371.23 532.00 405.00
C 540.65 400.35 548.48 398.11 557.78 394.78 C 567.07 391.44 576.02 389.41 585.99 386.99 C 595.96 384.57 607.36 384.30 617.98 382.98 C 628.59 381.65 641.35 382.12 652.00 383.00 C 662.65 383.88 674.08 384.76 683.99 387.01 C 693.90 389.25 703.20 391.48 712.32 394.68 C 721.45 397.88 729.96 400.60 738.31 404.69 C 746.65 408.79 754.59 412.17 762.25 416.75 C 769.92 421.32 776.76 426.23 783.92 431.08 C 791.08 435.93 796.87 441.00 803.30 446.70 C 809.74 452.39 815.87 457.77 821.75 464.25 C 827.64 470.73 832.76 476.94 838.08 483.92 C 843.40 490.89 847.56 498.16 852.23 505.77 C 856.90 513.39 860.47 521.44 864.23 529.77 C 867.99 538.10 870.77 547.17 874.02 555.98 C 877.28 564.78 877.60 576.49 880.67 585.33 C 883.74 594.17 878.09 612.09 890.00 612.00 C 901.91 611.91 914.09 612.04 926.00 612.00 C 937.91 611.96 950.14 612.02 962.00 612.00 C 973.86 611.98 985.19 612.02 997.00 612.00 Z"/>
</g>
<g fill="None" fill-opacity="0.0" stroke="black" stroke-width="1"><path d="
M 435.00 330.00 
C 422.63 336.03 411.02 345.43 400.25 354.25 C 389.48 363.06 380.14 372.13 370.25 382.25 C 360.35 392.37 352.25 402.56 343.75 413.75 C 335.26 424.95 327.88 436.43 320.92 448.92 C 313.97 461.42 307.81 474.52 301.98 487.98 C 296.14 501.43 291.90 517.20 287.32 531.32 C 282.74 545.44 300.03 551.91 307.75 564.25 C 315.48 576.58 323.11 588.85 326.07 603.93 C 329.04 619.00 330.38 641.72 326.93 656.93 C 323.48 672.14 317.55 685.08 309.75 697.75 C 301.95 710.43 285.19 717.28 290.07 731.93 C 294.96 746.58 299.63 761.05 305.08 774.92 C 310.53 788.80 317.15 801.20 324.23 813.77 C 331.31 826.34 338.29 837.78 347.25 848.75 C 356.20 859.72 364.32 869.62 374.25 879.75 C 384.17 889.88 394.02 898.55 404.75 907.25 C 415.49 915.95 426.20 925.33 438.00 932.00
C 441.96 922.37 447.58 913.86 452.69 904.70 C 457.81 895.53 462.25 887.12 468.23 878.23 C 474.21 869.34 476.34 861.27 483.23 852.23 C 490.12 843.19 493.77 833.49 482.75 828.25 C 471.73 823.01 469.62 815.65 460.75 809.25 C 451.89 802.84 447.91 794.79 440.77 787.23 C 433.63 779.67 429.39 770.88 423.75 762.25 C 418.12 753.62 412.98 746.02 408.98 736.03 C 404.97 726.03 400.98 715.94 397.93 705.07 C 394.87 694.21 392.29 683.49 390.33 671.67 C 388.37 659.85 388.24 644.62 388.00 632.00 C 387.76 619.38 389.26 604.81 391.00 593.00 C 392.74 581.19 394.95 569.90 398.07 559.07 C 401.20 548.24 405.46 538.59 409.68 528.68 C 413.89 518.77 418.06 510.45 423.70 501.70 C 429.34 492.94 434.01 484.64 440.70 476.70 C 447.38 468.75 452.06 461.35 460.25 454.25 C 468.44 447.15 472.24 441.10 482.25 435.25 C 492.25 429.40 483.49 418.94 478.75 410.25 C 474.02 401.55 468.81 392.91 463.92 384.08 C 459.04 375.25 453.86 365.74 449.30 356.70 C 444.75 347.65 438.71 339.43 435.00 330.00 Z"/>
</g>
<g fill="None" fill-opacity="0.0" stroke="black" stroke-width="1"><path d="
M 648.00 417.00 
C 557.05 408.20 471.96 466.57 437.77 549.77 C 403.58 632.97 427.08 740.29 500.25 798.75 C 573.43 857.20 679.63 862.59 757.25 809.25 C 834.87 755.91 865.68 655.05 839.98 567.02 C 814.27 479.00 734.77 425.40 648.00 417.00 Z"/>
</g>
<g fill="None" fill-opacity="0.0" stroke="black" stroke-width="1"><path d="
M 218.00 551.00 
C 153.34 543.18 107.05 615.19 135.03 669.97 C 163.00 724.75 238.95 729.59 275.70 680.70 C 312.44 631.80 278.69 558.34 218.00 551.00 Z"/>
</g>
<g fill="None" fill-opacity="0.0" stroke="black" stroke-width="1"><path d="
M 998.00 659.00 
C 959.33 659.00 920.67 659.00 882.00 659.00
C 874.03 733.88 835.13 799.92 769.70 842.70 C 704.26 885.47 605.39 894.17 533.00 860.00
C 514.85 891.80 496.10 923.16 478.00 955.00
C 487.15 958.71 494.96 963.23 504.31 966.69 C 513.65 970.16 522.05 974.40 531.99 977.01 C 541.93 979.62 551.89 982.58 562.33 984.67 C 572.77 986.76 584.11 988.57 595.00 990.00 C 605.88 991.44 618.57 992.32 630.00 992.00 C 641.43 991.68 656.31 992.86 667.00 991.00 C 677.69 989.14 691.61 990.39 700.98 986.98 C 710.35 983.56 724.72 985.12 731.92 979.92 C 739.11 974.71 735.94 959.06 742.03 952.03 C 748.11 944.99 748.93 935.28 755.75 928.75 C 762.57 922.22 766.65 915.21 774.30 909.30 C 781.96 903.40 788.90 899.22 797.77 894.77 C 806.64 890.32 815.86 887.34 825.99 884.99 C 836.13 882.65 850.43 882.69 861.00 884.00 C 871.57 885.31 881.36 886.60 891.00 891.00
C 954.61 828.64 991.72 746.30 998.00 659.00 Z"/>
</g>
<g fill="None" fill-opacity="0.0" stroke="black" stroke-width="1"><path d="
M 1266.00 769.00 
C 1236.39 882.20 1180.21 988.96 1099.00 1077.00
C 1115.98 1078.29 1125.75 1059.41 1136.75 1047.75 C 1147.75 1036.10 1157.19 1022.97 1167.08 1010.08 C 1176.97 997.20 1185.58 983.34 1194.08 969.08 C 1202.58 954.82 1210.64 940.55 1218.08 925.08 C 1225.52 909.60 1232.44 893.92 1238.22 877.22 C 1244.01 860.53 1250.32 842.92 1254.07 825.07 C 1257.82 807.23 1264.44 787.62 1266.00 769.00 Z"/>
</g>
<g fill="None" fill-opacity="0.0" stroke="black" stroke-width="1"><path d="
M 854.00 920.00 
C 809.45 915.69 771.33 953.94 769.00 997.00 C 766.67 1040.06 801.81 1080.29 846.00 1081.00 C 890.19 1081.71 928.40 1046.97 930.07 1003.07 C 931.75 959.18 896.47 924.11 854.00 920.00 Z"/>
</g>
<g fill="None" fill-opacity="0.0" stroke="black" stroke-width="1"><path d="
M 849.00 1237.00 
C 827.61 1244.46 805.18 1250.02 784.00 1257.00
C 805.98 1251.88 828.89 1246.30 849.00 1237.00 Z"/>
</g>
</svg>