<svg xmlns="http://www.w3.org/2000/svg" xmlns:v="https://svgstorm.com"
viewBox = "0 0 589 322"
width="589"
height="322">
<g fill="None" fill-opacity="0.0" stroke="black" stroke-width="1"><path d="
M 0.00 322.00 
L 589.00 322.00
L 589.00 0.00
L 0.00 0.00
L 0.00 322.00
M 179.00 218.00 
C 171.24 215.61 165.57 210.02 157.92 207.08 C 150.28 204.13 145.57 196.65 136.98 197.98 C 128.38 199.30 117.40 200.14 108.33 201.33 C 99.26 202.52 91.62 203.03 83.77 208.77 C 75.92 214.51 71.57 213.20 62.92 219.92 C 54.28 226.65 52.51 214.83 50.07 206.93 C 47.63 199.03 47.17 189.00 43.22 181.78 C 39.28 174.55 32.11 172.10 26.90 166.10 C 21.69 160.09 17.59 157.36 10.75 150.25 C 3.91 143.13 16.24 140.87 25.02 140.02 C 33.81 139.18 44.72 135.91 54.00 136.00
C 52.35 147.96 53.45 156.39 49.07 168.07 C 44.70 179.76 54.92 184.40 64.69 187.31 C 74.47 190.21 81.22 195.60 91.00 198.00
C 97.06 185.64 105.42 174.23 112.00 162.00
C 120.65 168.22 126.80 172.60 133.75 182.25 C 140.71 191.89 150.77 190.37 159.69 183.69 C 168.62 177.02 181.51 177.89 184.93 166.93 C 188.34 155.96 191.12 145.44 194.78 134.78 C 198.43 124.11 200.42 112.67 204.33 102.33 C 208.24 91.98 209.99 79.91 213.99 69.99 C 217.99 60.07 219.85 46.34 224.32 37.32 C 228.80 28.31 225.96 10.40 237.01 8.01 C 248.05 5.61 267.15 8.61 279.00 8.00 C 290.85 7.39 309.77 7.23 321.00 8.00 C 332.23 8.77 354.79 2.28 356.00 15.00 C 357.21 27.72 356.01 44.36 356.00 57.00 C 355.99 69.64 357.23 87.34 356.00 99.00 C 354.77 110.66 361.27 131.90 351.32 137.32 C 341.37 142.74 328.55 141.95 317.93 145.93 C 307.31 149.90 294.70 150.34 283.93 153.93 C 273.15 157.52 260.56 158.37 249.93 161.93 C 239.29 165.49 225.96 165.80 215.93 169.93 C 205.89 174.06 189.15 170.45 186.07 182.07 C 183.00 193.70 183.40 206.69 179.00 218.00
M 432.00 241.00 
C 439.68 237.17 447.48 233.27 456.22 237.78 C 464.97 242.29 465.28 247.98 467.00 258.00 C 468.72 268.02 466.33 276.11 468.00 288.00 C 469.67 299.89 458.40 300.96 447.00 299.00
C 449.02 287.19 444.31 276.96 447.00 265.00 C 449.69 253.04 433.40 253.28 432.01 264.01 C 430.61 274.74 433.04 288.04 432.00 299.00
C 425.07 298.41 417.50 300.23 411.00 298.00
C 413.10 291.56 411.58 283.83 412.00 277.00 C 412.42 270.17 411.54 261.62 412.00 255.00 C 412.46 248.38 411.21 237.87 412.00 232.00 C 412.79 226.13 409.16 215.19 414.03 214.03 C 418.91 212.88 431.77 211.54 431.99 218.01 C 432.21 224.48 431.84 234.23 432.00 241.00
M 288.00 220.00 
C 292.43 244.88 267.86 259.49 260.00 280.00
C 269.33 280.00 278.67 280.00 288.00 280.00
C 288.00 286.67 288.00 293.33 288.00 300.00
C 269.00 300.00 250.00 300.00 231.00 300.00
C 226.79 278.40 246.35 264.40 255.77 247.77 C 265.19 231.14 242.09 244.55 233.00 240.00
C 233.00 233.33 233.00 226.67 233.00 220.00
C 251.33 220.00 269.67 220.00 288.00 220.00
M 310.00 276.00 
C 313.00 286.53 324.25 281.56 330.69 279.69 C 337.14 277.83 347.70 287.98 340.25 293.25 C 332.79 298.51 326.54 301.51 317.00 301.00 C 307.46 300.49 301.43 297.80 295.70 290.30 C 289.96 282.81 289.89 273.15 290.00 264.00 C 290.11 254.85 293.91 248.99 299.75 242.75 C 305.60 236.52 317.27 234.76 324.67 236.33 C 332.07 237.90 339.45 243.85 341.77 250.23 C 344.09 256.61 349.54 273.03 340.99 274.99 C 332.44 276.95 318.54 272.73 310.00 276.00
M 370.00 298.00 
C 370.00 305.00 370.00 312.00 370.00 319.00
C 363.00 319.00 356.00 319.00 349.00 319.00
C 349.00 292.33 349.00 265.67 349.00 239.00
C 361.83 242.15 374.23 236.08 386.00 236.00 C 397.77 235.92 404.47 247.35 406.32 257.68 C 408.17 268.01 408.03 283.86 400.70 292.70 C 393.37 301.53 379.92 303.27 370.00 298.00
M 563.00 258.00 
C 540.39 250.72 546.29 279.35 546.00 293.00 C 545.71 306.65 532.66 295.02 525.00 299.00
C 524.33 281.50 526.33 262.68 524.00 246.00
C 519.32 263.57 509.86 277.78 505.68 295.68 C 501.50 313.58 485.58 328.66 466.00 318.00
C 466.05 311.77 469.14 306.31 469.00 300.00
C 488.08 308.21 486.58 288.11 480.22 276.78 C 473.87 265.44 472.49 250.79 467.00 239.00
C 473.67 239.00 480.33 239.00 487.00 239.00
C 488.42 247.71 493.44 255.32 495.00 264.00
C 501.32 258.56 502.07 246.97 506.00 239.00
C 519.19 240.10 533.85 236.66 546.00 241.00
C 549.88 236.88 559.82 234.23 565.07 237.93 C 570.32 241.62 561.21 252.52 563.00 258.00 Z"/>
</g>
<g fill="None" fill-opacity="0.0" stroke="black" stroke-width="1"><path d="
M 179.00 218.00 
C 183.40 206.69 183.00 193.70 186.07 182.07 C 189.15 170.45 205.89 174.06 215.93 169.93 C 225.96 165.80 239.29 165.49 249.93 161.93 C 260.56 158.37 273.15 157.52 283.93 153.93 C 294.70 150.34 307.31 149.90 317.93 145.93 C 328.55 141.95 341.37 142.74 351.32 137.32 C 361.27 131.90 354.77 110.66 356.00 99.00 C 357.23 87.34 355.99 69.64 356.00 57.00 C 356.01 44.36 357.21 27.72 356.00 15.00 C 354.79 2.28 332.23 8.77 321.00 8.00 C 309.77 7.23 290.85 7.39 279.00 8.00 C 267.15 8.61 248.05 5.61 237.01 8.01 C 225.96 10.40 228.80 28.31 224.32 37.32 C 219.85 46.34 217.99 60.07 213.99 69.99 C 209.99 79.91 208.24 91.98 204.33 102.33 C 200.42 112.67 198.43 124.11 194.78 134.78 C 191.12 145.44 188.34 155.96 184.93 166.93 C 181.51 177.89 168.62 177.02 159.69 183.69 C 150.77 190.37 140.71 191.89 133.75 182.25 C 126.80 172.60 120.65 168.22 112.00 162.00
C 105.42 174.23 97.06 185.64 91.00 198.00
C 81.22 195.60 74.47 190.21 64.69 187.31 C 54.92 184.40 44.70 179.76 49.07 168.07 C 53.45 156.39 52.35 147.96 54.00 136.00
C 44.72 135.91 33.81 139.18 25.02 140.02 C 16.24 140.87 3.91 143.13 10.75 150.25 C 17.59 157.36 21.69 160.09 26.90 166.10 C 32.11 172.10 39.28 174.55 43.22 181.78 C 47.17 189.00 47.63 199.03 50.07 206.93 C 52.51 214.83 54.28 226.65 62.92 219.92 C 71.57 213.20 75.92 214.51 83.77 208.77 C 91.62 203.03 99.26 202.52 108.33 201.33 C 117.40 200.14 128.38 199.30 136.98 197.98 C 145.57 196.65 150.28 204.13 157.92 207.08 C 165.57 210.02 171.24 215.61 179.00 218.00
M 347.00 12.00 
C 334.17 28.68 315.50 43.31 302.00 59.00
C 280.28 46.20 261.11 27.49 240.00 13.00
C 274.76 10.67 311.48 12.67 347.00 12.00
M 297.00 62.00 
C 261.70 98.07 225.99 133.57 189.00 166.00
C 191.76 156.26 195.25 146.98 198.31 137.31 C 201.36 127.63 203.94 117.74 206.98 107.98 C 210.01 98.21 212.99 88.81 215.93 78.93 C 218.86 69.04 221.90 58.87 224.98 48.98 C 228.05 39.08 230.68 29.93 233.93 19.93 C 237.17 9.92 246.89 23.98 253.75 28.25 C 260.61 32.52 268.22 39.76 275.25 44.75 C 282.27 49.75 290.17 56.40 297.00 62.00
M 351.00 16.00 
C 350.77 53.56 351.34 93.03 351.00 129.00
C 343.07 119.54 336.71 109.92 329.25 99.75 C 321.78 89.59 315.81 79.49 307.75 69.25 C 299.69 59.01 316.70 49.71 324.25 41.25 C 331.80 32.79 342.29 22.91 351.00 16.00
M 348.00 134.00 
C 296.49 146.78 244.63 158.42 193.00 171.00
C 226.64 134.80 264.94 101.78 299.00 66.00
C 317.23 86.09 332.73 111.16 348.00 134.00
M 14.00 146.00 
C 20.49 145.81 28.82 143.66 35.00 143.00 C 41.18 142.35 50.38 136.89 49.07 145.07 C 47.76 153.25 47.42 158.32 46.00 166.00 C 44.58 173.68 44.47 179.14 37.25 170.75 C 30.03 162.36 19.61 155.21 14.00 146.00
M 138.00 191.00 
C 134.06 196.02 123.96 194.99 117.00 196.00 C 110.04 197.01 101.77 199.35 95.00 198.00
C 101.17 188.04 107.50 178.32 113.00 168.00
C 122.50 173.44 129.69 185.24 138.00 191.00
M 183.00 178.00 
C 180.83 188.94 178.80 199.94 177.00 211.00
C 166.36 207.42 153.72 201.60 146.00 194.00
C 158.68 189.57 169.94 181.41 183.00 178.00
M 87.00 201.00 
C 78.13 207.46 67.46 213.22 57.00 217.00
C 54.22 206.28 50.71 195.77 48.00 185.00
C 61.26 189.55 73.97 195.68 87.00 201.00 Z"/>
</g>
<g fill="None" fill-opacity="0.0" stroke="black" stroke-width="1"><path d="
M 347.00 12.00 
C 311.48 12.67 274.76 10.67 240.00 13.00
C 261.11 27.49 280.28 46.20 302.00 59.00
C 315.50 43.31 334.17 28.68 347.00 12.00 Z"/>
</g>
<g fill="None" fill-opacity="0.0" stroke="black" stroke-width="1"><path d="
M 297.00 62.00 
C 290.17 56.40 282.27 49.75 275.25 44.75 C 268.22 39.76 260.61 32.52 253.75 28.25 C 246.89 23.98 237.17 9.92 233.93 19.93 C 230.68 29.93 228.05 39.08 224.98 48.98 C 221.90 58.87 218.86 69.04 215.93 78.93 C 212.99 88.81 210.01 98.21 206.98 107.98 C 203.94 117.74 201.36 127.63 198.31 137.31 C 195.25 146.98 191.76 156.26 189.00 166.00
C 225.99 133.57 261.70 98.07 297.00 62.00 Z"/>
</g>
<g fill="None" fill-opacity="0.0" stroke="black" stroke-width="1"><path d="
M 351.00 16.00 
C 342.29 22.91 331.80 32.79 324.25 41.25 C 316.70 49.71 299.69 59.01 307.75 69.25 C 315.81 79.49 321.78 89.59 329.25 99.75 C 336.71 109.92 343.07 119.54 351.00 129.00
C 351.34 93.03 350.77 53.56 351.00 16.00 Z"/>
</g>
<g fill="None" fill-opacity="0.0" stroke="black" stroke-width="1"><path d="
M 348.00 134.00 
C 332.73 111.16 317.23 86.09 299.00 66.00
C 264.94 101.78 226.64 134.80 193.00 171.00
C 244.63 158.42 296.49 146.78 348.00 134.00 Z"/>
</g>
<g fill="None" fill-opacity="0.0" stroke="black" stroke-width="1"><path d="
M 14.00 146.00 
C 19.61 155.21 30.03 162.36 37.25 170.75 C 44.47 179.14 44.58 173.68 46.00 166.00 C 47.42 158.32 47.76 153.25 49.07 145.07 C 50.38 136.89 41.18 142.35 35.00 143.00 C 28.82 143.66 20.49 145.81 14.00 146.00 Z"/>
</g>
<g fill="None" fill-opacity="0.0" stroke="black" stroke-width="1"><path d="
M 138.00 191.00 
C 129.69 185.24 122.50 173.44 113.00 168.00
C 107.50 178.32 101.17 188.04 95.00 198.00
C 101.77 199.35 110.04 197.01 117.00 196.00 C 123.96 194.99 134.06 196.02 138.00 191.00 Z"/>
</g>
<g fill="None" fill-opacity="0.0" stroke="black" stroke-width="1"><path d="
M 183.00 178.00 
C 169.94 181.41 158.68 189.57 146.00 194.00
C 153.72 201.60 166.36 207.42 177.00 211.00
C 178.80 199.94 180.83 188.94 183.00 178.00 Z"/>
</g>
<g fill="None" fill-opacity="0.0" stroke="black" stroke-width="1"><path d="
M 87.00 201.00 
C 73.97 195.68 61.26 189.55 48.00 185.00
C 50.71 195.77 54.22 206.28 57.00 217.00
C 67.46 213.22 78.13 207.46 87.00 201.00 Z"/>
</g>
<g fill="None" fill-opacity="0.0" stroke="black" stroke-width="1"><path d="
M 432.00 241.00 
C 431.84 234.23 432.21 224.48 431.99 218.01 C 431.77 211.54 418.91 212.88 414.03 214.03 C 409.16 215.19 412.79 226.13 412.00 232.00 C 411.21 237.87 412.46 248.38 412.00 255.00 C 411.54 261.62 412.42 270.17 412.00 277.00 C 411.58 283.83 413.10 291.56 411.00 298.00
C 417.50 300.23 425.07 298.41 432.00 299.00
C 433.04 288.04 430.61 274.74 432.01 264.01 C 433.40 253.28 449.69 253.04 447.00 265.00 C 444.31 276.96 449.02 287.19 447.00 299.00
C 458.40 300.96 469.67 299.89 468.00 288.00 C 466.33 276.11 468.72 268.02 467.00 258.00 C 465.28 247.98 464.97 242.29 456.22 237.78 C 447.48 233.27 439.68 237.17 432.00 241.00
M 427.00 220.00 
C 427.00 229.67 427.00 239.33 427.00 249.00
C 435.76 243.97 452.78 233.55 459.92 247.08 C 467.06 260.62 460.91 279.00 463.00 294.00
C 459.33 294.00 455.67 294.00 452.00 294.00
C 452.45 281.60 452.13 271.77 452.00 260.00 C 451.87 248.23 435.17 248.39 429.25 257.25 C 423.34 266.12 428.99 283.30 427.00 294.00
C 412.26 298.15 416.09 282.72 416.00 273.00 C 415.91 263.28 415.91 250.72 416.00 241.00 C 416.09 231.28 412.25 215.87 427.00 220.00 Z"/>
</g>
<g fill="None" fill-opacity="0.0" stroke="black" stroke-width="1"><path d="
M 288.00 220.00 
C 269.67 220.00 251.33 220.00 233.00 220.00
C 233.00 226.67 233.00 233.33 233.00 240.00
C 242.09 244.55 265.19 231.14 255.77 247.77 C 246.35 264.40 226.79 278.40 231.00 300.00
C 250.00 300.00 269.00 300.00 288.00 300.00
C 288.00 293.33 288.00 286.67 288.00 280.00
C 278.67 280.00 269.33 280.00 260.00 280.00
C 267.86 259.49 292.43 244.88 288.00 220.00
M 283.00 225.00 
C 285.42 237.77 274.15 246.61 268.25 256.25 C 262.34 265.88 255.40 274.30 250.00 284.00
C 259.57 283.10 266.13 285.20 276.00 284.00 C 285.87 282.80 287.02 294.75 277.00 295.00 C 266.98 295.24 259.69 293.31 250.00 295.00 C 240.31 296.69 233.01 292.30 236.78 283.78 C 240.55 275.26 244.02 274.59 247.77 267.77 C 251.52 260.95 254.84 258.51 258.30 252.30 C 261.76 246.10 266.06 242.34 269.00 236.00
C 258.30 233.41 233.83 243.68 238.00 225.00
C 253.00 225.00 268.00 225.00 283.00 225.00 Z"/>
</g>
<g fill="None" fill-opacity="0.0" stroke="black" stroke-width="1"><path d="
M 427.00 220.00 
C 412.25 215.87 416.09 231.28 416.00 241.00 C 415.91 250.72 415.91 263.28 416.00 273.00 C 416.09 282.72 412.26 298.15 427.00 294.00
C 428.99 283.30 423.34 266.12 429.25 257.25 C 435.17 248.39 451.87 248.23 452.00 260.00 C 452.13 271.77 452.45 281.60 452.00 294.00
C 455.67 294.00 459.33 294.00 463.00 294.00
C 460.91 279.00 467.06 260.62 459.92 247.08 C 452.78 233.55 435.76 243.97 427.00 249.00
C 427.00 239.33 427.00 229.67 427.00 220.00 Z"/>
</g>
<g fill="None" fill-opacity="0.0" stroke="black" stroke-width="1"><path d="
M 283.00 225.00 
C 268.00 225.00 253.00 225.00 238.00 225.00
C 233.83 243.68 258.30 233.41 269.00 236.00
C 266.06 242.34 261.76 246.10 258.30 252.30 C 254.84 258.51 251.52 260.95 247.77 267.77 C 244.02 274.59 240.55 275.26 236.78 283.78 C 233.01 292.30 240.31 296.69 250.00 295.00 C 259.69 293.31 266.98 295.24 277.00 295.00 C 287.02 294.75 285.87 282.80 276.00 284.00 C 266.13 285.20 259.57 283.10 250.00 284.00
C 255.40 274.30 262.34 265.88 268.25 256.25 C 274.15 246.61 285.42 237.77 283.00 225.00 Z"/>
</g>
<g fill="None" fill-opacity="0.0" stroke="black" stroke-width="1"><path d="
M 310.00 276.00 
C 318.54 272.73 332.44 276.95 340.99 274.99 C 349.54 273.03 344.09 256.61 341.77 250.23 C 339.45 243.85 332.07 237.90 324.67 236.33 C 317.27 234.76 305.60 236.52 299.75 242.75 C 293.91 248.99 290.11 254.85 290.00 264.00 C 289.89 273.15 289.96 282.81 295.70 290.30 C 301.43 297.80 307.46 300.49 317.00 301.00 C 326.54 301.51 332.79 298.51 340.25 293.25 C 347.70 287.98 337.14 277.83 330.69 279.69 C 324.25 281.56 313.00 286.53 310.00 276.00
M 340.00 270.00 
C 330.35 271.48 318.43 268.03 309.00 270.00 C 299.57 271.97 307.84 285.23 315.07 286.93 C 322.30 288.62 332.24 280.87 338.00 288.00
C 328.87 300.36 304.16 299.55 297.23 284.77 C 290.30 269.99 292.95 248.51 309.68 241.68 C 326.40 234.85 344.60 251.60 340.00 270.00 Z"/>
</g>
<g fill="None" fill-opacity="0.0" stroke="black" stroke-width="1"><path d="
M 370.00 298.00 
C 379.92 303.27 393.37 301.53 400.70 292.70 C 408.03 283.86 408.17 268.01 406.32 257.68 C 404.47 247.35 397.77 235.92 386.00 236.00 C 374.23 236.08 361.83 242.15 349.00 239.00
C 349.00 265.67 349.00 292.33 349.00 319.00
C 356.00 319.00 363.00 319.00 370.00 319.00
C 370.00 312.00 370.00 305.00 370.00 298.00
M 365.00 290.00 
C 363.92 299.47 370.09 318.47 354.00 314.00
C 354.00 290.33 354.00 266.67 354.00 243.00
C 357.98 243.50 365.02 240.95 365.00 247.00
C 383.74 232.13 402.68 245.22 402.98 267.02 C 403.27 288.83 384.68 305.13 365.00 290.00 Z"/>
</g>
<g fill="None" fill-opacity="0.0" stroke="black" stroke-width="1"><path d="
M 563.00 258.00 
C 561.21 252.52 570.32 241.62 565.07 237.93 C 559.82 234.23 549.88 236.88 546.00 241.00
C 533.85 236.66 519.19 240.10 506.00 239.00
C 502.07 246.97 501.32 258.56 495.00 264.00
C 493.44 255.32 488.42 247.71 487.00 239.00
C 480.33 239.00 473.67 239.00 467.00 239.00
C 472.49 250.79 473.87 265.44 480.22 276.78 C 486.58 288.11 488.08 308.21 469.00 300.00
C 469.14 306.31 466.05 311.77 466.00 318.00
C 485.58 328.66 501.50 313.58 505.68 295.68 C 509.86 277.78 519.32 263.57 524.00 246.00
C 526.33 262.68 524.33 281.50 525.00 299.00
C 532.66 295.02 545.71 306.65 546.00 293.00 C 546.29 279.35 540.39 250.72 563.00 258.00
M 561.00 242.00 
C 561.21 245.56 559.55 248.60 559.00 252.00
C 551.38 251.78 540.63 254.54 541.00 264.00 C 541.38 273.46 540.72 284.41 541.00 294.00
C 537.33 294.00 533.67 294.00 530.00 294.00
C 530.00 277.00 530.00 260.00 530.00 243.00
C 536.78 241.78 541.08 243.28 541.00 250.00
C 546.53 244.88 553.31 239.50 561.00 242.00
M 496.00 276.00 
C 500.46 271.52 501.78 263.25 504.78 256.78 C 507.77 250.30 508.28 239.28 519.00 243.00
C 516.75 253.92 511.22 264.17 507.69 274.69 C 504.17 285.22 499.25 295.48 496.07 306.07 C 492.90 316.67 468.91 321.76 473.00 307.00
C 490.76 309.56 492.50 291.17 486.22 279.78 C 479.95 268.38 477.65 254.92 473.00 243.00
C 483.70 239.25 485.36 249.01 487.93 256.07 C 490.49 263.14 493.52 269.35 496.00 276.00 Z"/>
</g>
<g fill="None" fill-opacity="0.0" stroke="black" stroke-width="1"><path d="
M 340.00 270.00 
C 344.60 251.60 326.40 234.85 309.68 241.68 C 292.95 248.51 290.30 269.99 297.23 284.77 C 304.16 299.55 328.87 300.36 338.00 288.00
C 332.24 280.87 322.30 288.62 315.07 286.93 C 307.84 285.23 299.57 271.97 309.00 270.00 C 318.43 268.03 330.35 271.48 340.00 270.00
M 330.00 263.00 
C 321.67 263.00 313.33 263.00 305.00 263.00
C 302.53 244.30 332.96 243.76 330.00 263.00 Z"/>
</g>
<g fill="None" fill-opacity="0.0" stroke="black" stroke-width="1"><path d="
M 365.00 290.00 
C 384.68 305.13 403.27 288.83 402.98 267.02 C 402.68 245.22 383.74 232.13 365.00 247.00
C 365.02 240.95 357.98 243.50 354.00 243.00
C 354.00 266.67 354.00 290.33 354.00 314.00
C 370.09 318.47 363.92 299.47 365.00 290.00
M 381.00 250.00 
C 389.27 250.93 393.06 262.00 392.00 270.00 C 390.94 278.00 387.36 287.76 376.00 286.00 C 364.64 284.24 365.45 275.69 365.00 266.00 C 364.55 256.31 370.33 248.81 381.00 250.00 Z"/>
</g>
<g fill="None" fill-opacity="0.0" stroke="black" stroke-width="1"><path d="
M 561.00 242.00 
C 553.31 239.50 546.53 244.88 541.00 250.00
C 541.08 243.28 536.78 241.78 530.00 243.00
C 530.00 260.00 530.00 277.00 530.00 294.00
C 533.67 294.00 537.33 294.00 541.00 294.00
C 540.72 284.41 541.38 273.46 541.00 264.00 C 540.63 254.54 551.38 251.78 559.00 252.00
C 559.55 248.60 561.21 245.56 561.00 242.00 Z"/>
</g>
<g fill="None" fill-opacity="0.0" stroke="black" stroke-width="1"><path d="
M 496.00 276.00 
C 493.52 269.35 490.49 263.14 487.93 256.07 C 485.36 249.01 483.70 239.25 473.00 243.00
C 477.65 254.92 479.95 268.38 486.22 279.78 C 492.50 291.17 490.76 309.56 473.00 307.00
C 468.91 321.76 492.90 316.67 496.07 306.07 C 499.25 295.48 504.17 285.22 507.69 274.69 C 511.22 264.17 516.75 253.92 519.00 243.00
C 508.28 239.28 507.77 250.30 504.78 256.78 C 501.78 263.25 500.46 271.52 496.00 276.00 Z"/>
</g>
<g fill="None" fill-opacity="0.0" stroke="black" stroke-width="1"><path d="
M 330.00 263.00 
C 332.96 243.76 302.53 244.30 305.00 263.00
C 313.33 263.00 321.67 263.00 330.00 263.00
M 325.00 260.00 
C 320.04 259.49 314.53 261.11 310.00 259.00
C 311.38 250.59 325.76 251.01 325.00 260.00 Z"/>
</g>
<g fill="None" fill-opacity="0.0" stroke="black" stroke-width="1"><path d="
M 381.00 250.00 
C 370.33 248.81 364.55 256.31 365.00 266.00 C 365.45 275.69 364.64 284.24 376.00 286.00 C 387.36 287.76 390.94 278.00 392.00 270.00 C 393.06 262.00 389.27 250.93 381.00 250.00
M 381.00 255.00 
C 392.51 257.39 387.59 283.97 375.92 281.06 C 364.25 278.16 367.60 252.22 381.00 255.00 Z"/>
</g>
<g fill="None" fill-opacity="0.0" stroke="black" stroke-width="1"><path d="
M 325.00 260.00 
C 325.76 251.01 311.38 250.59 310.00 259.00
C 314.53 261.11 320.04 259.49 325.00 260.00 Z"/>
</g>
<g fill="None" fill-opacity="0.0" stroke="black" stroke-width="1"><path d="
M 381.00 255.00 
C 367.60 252.22 364.25 278.16 375.92 281.06 C 387.59 283.97 392.51 257.39 381.00 255.00 Z"/>
</g>
</svg>