<svg xmlns="http://www.w3.org/2000/svg" xmlns:v="https://svgstorm.com"
viewBox = "0 0 960 1276"
width="960"
height="1276">
<g fill="None" fill-opacity="0.0" stroke="black" stroke-width="1"><path d="
M 0.00 1114.00 
C 0.19 1113.59 1.87 1113.27 2.00 1113.00
C 3.18 1107.84 5.18 1103.12 7.00 1098.00
C 8.03 1094.07 9.20 1089.63 10.00 1086.00
C 11.58 1073.23 10.87 1059.77 10.00 1047.00
C 9.31 1043.15 9.30 1038.44 9.00 1034.00
C 8.77 1030.55 8.14 1027.58 8.00 1024.00
C 6.26 1011.79 5.40 994.38 9.00 983.00
C 10.12 976.74 12.15 969.84 15.00 964.00
C 17.13 959.65 20.50 957.55 24.00 955.00
C 29.07 950.45 32.78 948.30 39.00 946.00
C 41.33 944.77 42.05 943.73 45.00 943.00
C 48.62 942.10 52.81 941.23 57.00 941.00
C 59.97 940.84 63.03 940.94 66.00 941.00
C 77.58 941.23 89.51 943.42 100.00 938.00
C 102.91 936.50 106.61 934.53 109.00 932.00
C 114.48 924.62 116.43 919.75 120.78 911.78 C 125.13 903.80 126.52 897.40 121.23 889.77 C 115.94 882.14 115.33 872.71 115.00 864.00
C 112.70 847.91 114.05 831.27 120.00 817.00
C 129.21 786.24 149.98 759.47 160.00 729.00
C 161.32 724.99 163.28 721.56 165.00 718.00
C 168.56 707.98 172.61 698.45 175.00 688.00
C 176.09 683.22 177.94 678.39 179.00 674.00
C 181.21 658.20 186.29 642.46 190.00 627.00
C 191.04 622.67 193.19 618.74 195.00 615.00
C 206.55 582.50 233.05 551.33 256.00 525.00
C 260.66 516.40 270.82 509.24 278.00 501.00
C 279.46 499.04 280.64 496.99 282.00 495.00
C 286.71 488.14 292.61 481.80 297.00 475.00
C 299.67 470.86 302.87 467.59 306.00 464.00
C 321.60 438.79 312.63 407.76 310.02 378.98 C 307.42 350.19 308.36 314.73 306.00 285.00
C 305.68 281.02 305.00 277.25 305.00 273.00
C 303.62 258.72 304.32 242.88 306.00 229.00
C 307.25 196.32 309.83 166.24 314.00 135.00
C 314.94 127.92 317.57 121.19 320.00 115.00
C 325.11 97.22 335.13 81.44 344.00 65.00
C 349.28 55.22 359.01 48.18 366.00 40.00
C 369.68 35.70 375.23 31.71 379.00 30.00
C 389.26 22.52 400.63 15.99 412.00 12.00
C 414.95 10.52 417.20 7.55 421.00 7.00
C 422.62 6.76 424.39 7.29 426.00 7.00
C 429.47 6.00 433.76 3.03 438.00 2.00
C 439.98 1.52 443.35 2.96 444.00 0.00
L 0.00 0.00
L 0.00 1114.00 Z"/>
</g>
<g fill="None" fill-opacity="0.0" stroke="black" stroke-width="1"><path d="
M 438.00 2.00 
C 434.29 3.47 430.17 6.24 426.00 7.00
C 424.39 7.29 422.62 6.76 421.00 7.00
C 418.56 7.70 414.97 10.96 412.00 12.00
C 400.63 15.99 389.26 22.52 379.00 30.00
C 376.67 31.70 374.29 34.30 372.00 36.00
C 363.25 45.28 352.24 54.25 344.00 65.00
C 335.13 81.44 325.11 97.22 320.00 115.00
C 318.13 121.51 315.56 128.97 314.00 135.00
C 309.83 166.24 307.25 196.32 306.00 229.00
C 305.53 241.43 305.00 254.23 305.00 267.00
C 306.09 273.08 306.61 278.72 306.00 285.00
C 308.36 314.73 307.42 350.19 310.02 378.98 C 312.63 407.76 321.60 438.79 306.00 464.00
C 304.33 466.70 302.80 469.38 301.00 472.00
C 295.24 480.40 288.40 487.66 282.00 495.00
C 280.64 496.99 279.46 499.04 278.00 501.00
C 271.42 509.85 263.27 516.66 256.00 525.00
C 233.05 551.33 206.55 582.50 195.00 615.00
C 193.60 618.95 191.22 623.53 190.00 627.00
C 186.29 642.46 181.21 658.20 179.00 674.00
C 178.24 679.44 176.68 683.45 175.00 688.00
C 172.61 698.45 168.56 707.98 165.00 718.00
C 163.60 721.93 161.56 725.59 160.00 729.00
C 149.98 759.47 129.21 786.24 120.00 817.00
C 115.44 832.22 114.36 847.23 115.00 864.00
C 115.33 872.71 115.94 882.14 121.23 889.77 C 126.52 897.40 125.13 903.80 120.78 911.78 C 116.43 919.75 114.48 924.62 109.00 932.00
C 106.49 935.37 102.17 940.15 98.00 941.00
C 96.74 941.26 95.28 940.91 94.00 941.00
C 88.21 942.34 82.11 945.34 75.00 944.00 C 67.89 942.66 61.30 943.00 54.00 943.00
C 53.50 943.00 53.00 943.00 53.00 943.00
C 50.07 945.17 42.82 944.59 39.00 946.00
C 32.78 948.30 29.07 950.45 24.00 955.00
C 21.23 957.49 17.10 960.88 15.00 964.00
C 12.15 969.84 10.12 976.74 9.00 983.00
C 6.71 995.75 7.50 1010.77 8.00 1024.00
C 8.14 1027.58 8.77 1030.55 9.00 1034.00
C 9.69 1037.85 9.70 1042.56 10.00 1047.00
C 10.87 1059.77 11.58 1073.23 10.00 1086.00
C 9.42 1090.64 8.42 1094.00 7.00 1098.00
C 5.18 1103.12 3.18 1107.84 2.00 1113.00
C 0.78 1118.33 1.09 1124.39 1.00 1130.00 C 0.91 1135.61 1.45 1142.65 1.00 1148.00 C 0.55 1153.35 2.10 1161.34 1.00 1166.00 C -0.10 1170.66 3.41 1180.75 1.00 1183.00
C 9.65 1199.19 31.26 1201.24 47.07 1208.93 C 62.88 1216.61 84.73 1221.55 102.67 1226.33 C 120.62 1231.11 141.78 1235.93 160.22 1240.78 C 178.67 1245.63 198.45 1250.14 216.07 1257.93 C 233.70 1265.71 252.37 1272.48 271.00 1276.00
L 295.00 1276.00
C 306.80 1272.56 322.05 1270.31 332.23 1262.23 C 342.41 1254.15 351.43 1249.29 358.75 1237.75 C 366.08 1226.22 370.47 1214.73 386.01 1214.01 C 401.55 1213.29 415.32 1207.31 431.02 1207.02 C 446.73 1206.74 465.23 1204.99 481.00 1206.00 C 496.77 1207.01 513.01 1207.83 528.00 1210.00 C 542.99 1212.17 558.89 1212.88 573.00 1216.00 C 587.12 1219.12 602.57 1221.49 615.67 1225.33 C 628.77 1229.17 644.33 1228.98 653.30 1238.70 C 662.28 1248.41 667.51 1257.09 679.70 1263.30 C 691.88 1269.52 705.76 1274.46 720.00 1275.00
C 725.94 1275.23 732.06 1275.23 738.00 1275.00
C 776.19 1273.54 808.50 1244.67 833.00 1216.00
C 836.66 1211.71 840.76 1207.62 845.00 1204.00
C 880.80 1173.41 919.18 1150.87 960.00 1129.00
L 960.00 1103.00
C 952.51 1109.54 943.44 1115.95 936.00 1122.00
C 932.80 1124.61 929.94 1126.03 926.00 1128.00
C 916.98 1132.51 906.04 1136.74 897.00 1143.00
C 890.55 1147.47 883.12 1152.28 876.00 1156.00
C 870.79 1158.72 865.81 1162.33 861.00 1166.00
C 852.39 1173.43 842.41 1181.23 834.00 1189.00
C 826.55 1197.71 817.70 1205.67 809.25 1214.25 C 800.80 1222.83 792.02 1232.59 782.00 1238.00
C 778.04 1241.00 772.80 1244.78 768.00 1248.00
C 767.66 1248.23 767.00 1248.00 767.00 1248.00
C 764.18 1252.04 758.62 1252.73 754.00 1254.00
C 749.41 1256.00 745.33 1256.00 740.00 1256.00
C 714.54 1256.00 688.14 1254.28 673.23 1230.77 C 658.32 1207.26 662.56 1178.87 666.00 1152.00 C 669.43 1125.13 674.61 1099.50 678.00 1072.00 C 681.38 1044.49 684.00 1013.77 684.00 985.00
C 684.00 976.67 684.00 968.33 684.00 960.00
C 684.00 945.51 677.73 924.00 687.25 912.25 C 696.77 900.50 720.14 912.84 732.00 912.00
C 731.68 931.64 728.85 955.58 742.25 971.75 C 755.65 987.93 779.95 991.77 799.01 988.01 C 818.07 984.24 833.42 973.64 848.25 962.25 C 863.08 950.85 874.02 936.89 882.00 921.00
C 911.14 933.96 898.63 974.47 911.77 997.23 C 924.91 1019.99 942.60 1036.41 960.00 1056.00
L 960.00 1025.00
C 943.96 1007.92 924.06 990.84 924.00 966.00 C 923.94 941.16 915.34 914.77 892.00 902.00
C 899.88 880.36 904.63 857.68 905.00 834.00
C 905.00 824.33 905.00 814.67 905.00 805.00
C 905.00 774.60 898.19 739.22 892.07 710.93 C 885.96 682.64 876.56 655.77 865.70 630.31 C 854.83 604.84 842.09 584.66 825.75 563.25 C 809.42 541.84 791.11 527.60 774.75 506.25 C 758.39 484.89 743.70 467.59 731.08 442.92 C 718.45 418.26 707.52 395.12 700.22 366.78 C 692.92 338.43 690.58 300.46 691.00 269.00 C 691.42 237.54 691.89 193.67 688.00 164.00 C 684.11 134.32 674.48 109.31 659.70 85.30 C 644.91 61.30 628.92 47.05 606.31 31.70 C 583.69 16.34 555.73 7.15 530.00 0.00
L 444.00 0.00
C 443.35 2.96 439.98 1.52 438.00 2.00
M 557.00 170.00 
C 549.28 168.70 542.30 167.09 535.00 170.00
C 534.57 170.17 534.00 170.00 534.00 170.00
C 531.32 172.62 515.39 176.47 513.00 174.00
C 501.02 178.32 492.69 191.32 484.00 199.00
C 496.52 176.69 521.64 156.66 548.00 158.00 C 574.36 159.34 597.98 185.64 599.00 210.00
C 588.79 193.76 574.53 177.59 557.00 170.00
M 335.00 208.00 
C 334.04 220.16 335.00 232.80 335.00 245.00
C 335.00 255.99 337.05 269.88 338.00 280.00 C 338.95 290.12 343.42 302.20 345.31 310.69 C 347.20 319.18 361.97 328.66 354.67 336.67 C 347.38 344.68 343.58 350.81 340.00 361.00
C 338.25 365.98 337.69 370.23 338.00 376.00
C 338.33 382.14 340.42 387.97 347.25 390.75 C 354.08 393.54 353.40 401.55 353.00 409.00 C 352.60 416.45 353.11 425.49 353.00 433.00 C 352.89 440.51 351.33 446.87 350.00 454.00
C 348.58 461.63 345.69 466.59 342.00 473.00
C 327.87 506.90 294.36 532.80 291.00 571.00
C 290.59 575.68 289.82 581.77 289.00 586.00
C 287.83 600.71 286.15 611.21 275.70 621.70 C 265.24 632.19 266.85 645.00 259.03 656.03 C 251.20 667.06 248.81 680.03 244.00 692.00
C 241.52 698.16 238.30 704.13 236.00 710.00
C 234.02 716.91 230.97 723.13 229.00 730.00
C 227.31 735.90 223.68 741.70 222.00 747.00
C 212.65 790.65 198.43 834.66 200.00 882.00
C 192.33 878.98 186.33 872.21 178.00 871.00
C 172.39 870.20 163.56 869.95 158.00 871.00
C 151.17 873.25 147.05 878.44 140.00 880.00
C 124.99 844.70 143.63 807.98 158.31 777.31 C 172.98 746.63 188.36 716.86 195.98 683.98 C 203.60 651.09 210.65 615.41 230.75 587.75 C 250.86 560.09 266.69 541.11 288.77 514.77 C 310.85 488.43 336.14 465.82 332.00 427.00 C 327.86 388.18 326.92 344.42 324.00 304.00 C 321.08 263.58 323.77 217.22 327.00 177.00
C 331.87 179.88 334.68 186.30 340.00 188.00
C 338.74 194.87 335.89 201.00 335.00 208.00
M 594.00 250.00 
C 595.72 257.38 596.43 266.02 595.00 274.00
C 594.03 288.21 589.50 302.25 582.00 314.00
C 578.65 319.25 574.26 321.06 568.00 320.00
C 563.41 319.22 558.79 317.23 555.00 315.00
C 550.64 313.47 545.96 311.66 542.00 310.00
C 578.37 302.58 581.75 242.56 548.00 230.00
C 540.15 228.26 532.92 227.60 525.00 230.00
C 514.36 235.80 507.06 245.91 506.00 258.00
C 505.63 262.18 504.46 266.98 504.00 270.00
C 503.65 278.80 507.93 286.77 510.00 295.00
C 482.38 285.72 471.24 246.52 482.78 221.78 C 494.32 197.03 521.72 174.67 549.22 183.78 C 576.73 192.89 591.02 223.51 594.00 250.00
M 427.00 253.00 
C 429.39 260.88 431.07 269.46 424.00 276.00
C 419.23 280.41 414.23 286.00 408.00 288.00
C 410.51 269.06 406.94 247.41 391.00 235.00
C 384.87 231.32 379.58 233.44 373.00 233.00
C 370.32 236.80 364.47 239.11 362.00 244.00
C 354.75 262.04 356.10 282.00 368.00 298.00
C 371.61 302.14 377.09 305.24 380.00 310.00
C 377.86 310.59 377.54 313.04 376.00 314.00
C 369.67 325.12 359.82 323.98 355.08 312.92 C 350.34 301.86 347.01 294.64 345.07 282.93 C 343.14 271.21 343.09 257.02 343.00 245.00 C 342.91 232.98 345.25 221.29 350.31 211.31 C 355.36 201.32 361.09 196.01 371.03 192.02 C 380.96 188.04 392.13 191.89 400.25 198.75 C 408.36 205.62 412.62 212.09 417.77 221.23 C 422.92 230.37 425.21 242.44 427.00 253.00
M 524.00 424.00 
C 518.04 428.85 513.40 433.89 506.00 437.00
C 505.57 437.18 504.38 436.79 504.00 437.00
C 497.57 443.73 485.63 447.42 477.00 450.00
C 472.01 452.18 465.13 455.96 459.00 456.00 C 452.87 456.04 443.41 461.70 438.00 457.00
C 437.62 456.67 437.10 455.06 437.00 455.00
C 406.91 452.95 389.59 421.32 372.00 400.00
C 402.38 427.98 449.22 418.57 483.69 406.69 C 518.17 394.82 538.72 365.81 570.00 349.00
C 564.50 340.12 556.12 350.17 550.75 354.75 C 545.38 359.34 538.54 365.83 533.00 370.00
C 532.24 370.71 531.86 371.37 531.00 372.00
C 528.17 375.00 524.65 377.99 521.00 380.00
C 510.24 385.93 502.39 392.19 490.99 396.99 C 479.60 401.79 466.63 404.61 454.00 407.00
C 452.87 407.35 451.15 411.07 448.00 410.00 C 444.84 408.92 442.12 410.00 439.00 410.00
C 437.67 410.00 436.33 410.00 435.00 410.00
C 433.75 417.61 415.47 411.17 412.00 410.00
C 411.00 410.00 410.00 409.97 409.00 410.00
C 404.45 410.12 402.51 408.75 399.00 407.00
C 389.68 402.34 378.85 397.11 370.75 390.25 C 362.65 383.38 343.54 381.58 346.00 369.00 C 348.46 356.42 353.93 348.38 361.25 339.25 C 368.57 330.12 374.62 323.05 383.25 315.25 C 391.87 307.45 399.10 302.33 408.75 295.75 C 418.39 289.16 429.44 285.05 441.02 282.02 C 452.61 279.00 469.10 280.32 480.07 284.93 C 491.05 289.53 498.73 295.57 509.08 300.92 C 519.42 306.28 529.02 312.47 540.22 315.78 C 551.43 319.08 563.17 323.16 574.22 326.78 C 585.28 330.39 595.05 343.27 592.00 355.00 C 588.95 366.73 590.80 381.74 582.25 390.25 C 573.69 398.75 562.18 400.86 552.26 406.26 C 542.34 411.65 533.53 417.92 524.00 424.00
M 731.00 778.00 
C 733.40 791.40 734.64 809.31 732.00 823.00
C 731.16 833.60 730.84 852.12 729.00 862.00 C 727.16 871.88 730.27 893.28 719.33 893.67 C 708.39 894.05 693.79 886.95 683.92 894.92 C 674.04 902.89 669.00 909.27 669.00 922.00
C 669.00 927.33 669.00 932.67 669.00 938.00
C 669.00 946.67 669.00 955.33 669.00 964.00
C 671.30 975.91 671.44 989.92 671.00 1003.00
C 669.33 1002.76 670.83 1000.15 669.00 1000.00
C 669.00 1012.83 671.57 1033.09 661.30 1041.30 C 651.02 1049.51 646.47 1058.21 637.25 1066.25 C 628.02 1074.29 620.63 1082.84 611.00 1090.00
C 605.53 1094.77 600.86 1100.10 595.00 1104.00
C 584.41 1113.23 570.10 1117.66 560.00 1127.00
C 554.72 1131.88 548.15 1133.81 542.00 1136.00
C 527.10 1141.29 511.87 1145.32 496.00 1148.00
C 493.27 1148.83 491.23 1152.14 487.00 1151.00 C 482.77 1149.86 479.17 1151.00 475.00 1151.00
C 470.67 1151.00 466.33 1151.00 462.00 1151.00
C 457.91 1151.40 453.02 1151.39 449.00 1151.00
C 445.67 1151.00 442.33 1151.00 439.00 1151.00
C 434.32 1151.00 431.53 1150.18 428.00 1149.00
C 405.41 1144.48 379.95 1138.81 360.75 1126.25 C 341.56 1113.68 333.78 1094.19 319.00 1077.00
C 339.18 1081.49 362.68 1071.51 368.78 1050.78 C 374.87 1030.04 362.52 1009.46 348.75 995.25 C 334.98 981.04 320.74 971.34 306.00 959.00
C 302.02 955.86 298.68 952.40 295.00 949.00
C 282.34 939.01 272.37 930.85 259.75 920.25 C 247.14 909.64 238.08 901.80 224.77 890.23 C 211.46 878.66 218.85 853.29 219.93 835.93 C 221.01 818.56 224.77 796.41 228.33 779.33 C 231.89 762.25 237.35 745.05 242.78 728.78 C 248.20 712.50 253.68 697.25 260.92 681.92 C 268.17 666.60 274.67 655.29 283.77 640.77 C 292.87 626.25 303.72 613.19 299.00 595.00 C 294.29 576.81 304.30 557.14 310.77 541.77 C 317.24 526.40 325.68 514.89 334.75 500.75 C 343.83 486.62 352.60 475.13 356.99 457.99 C 361.39 440.85 360.57 415.98 362.00 398.00
C 381.17 418.75 392.14 447.44 420.70 458.31 C 449.25 469.17 488.12 456.95 512.08 439.08 C 536.04 421.21 561.16 408.01 587.00 394.00
C 597.16 413.94 601.87 435.95 613.31 455.69 C 624.74 475.44 631.74 495.26 640.98 516.02 C 650.21 536.79 652.30 565.21 658.00 587.00 C 663.70 608.79 686.61 617.04 694.75 638.25 C 702.89 659.45 714.83 677.94 719.99 701.01 C 725.15 724.08 731.94 752.75 731.00 778.00
M 815.00 734.00 
C 816.87 743.67 817.26 758.43 815.00 768.00
C 814.83 769.58 814.24 770.56 814.00 772.00
C 813.29 776.30 812.88 780.60 812.00 784.00
C 809.95 798.69 802.97 817.32 799.08 831.08 C 795.18 844.83 779.79 862.02 788.77 875.23 C 797.75 888.44 816.16 888.07 829.08 894.92 C 841.99 901.78 860.01 903.46 873.00 911.00
C 867.79 931.94 849.87 947.51 833.00 960.00
C 829.09 962.71 825.70 965.46 822.00 968.00
C 817.55 971.05 810.92 974.95 805.00 976.00
C 803.16 976.33 800.87 976.04 799.00 976.00
C 797.23 976.33 796.59 977.33 795.00 978.00
C 787.19 981.31 775.85 978.82 769.00 976.00
C 733.80 969.94 737.04 919.00 751.98 893.98 C 766.91 868.95 782.14 843.84 791.78 814.78 C 801.41 785.72 805.33 740.07 797.01 709.99 C 788.69 679.91 774.64 656.51 751.77 636.23 C 728.90 615.95 704.87 606.16 684.00 584.00
C 747.08 609.32 811.02 661.54 815.00 734.00
M 787.00 768.00 
C 786.07 779.78 783.00 790.71 780.00 801.00
C 774.59 833.66 755.87 861.93 739.00 890.00
C 741.74 793.32 742.44 690.30 692.00 607.00
C 754.47 633.57 792.73 699.86 787.00 768.00
M 345.00 1222.00 
C 343.32 1224.68 341.66 1227.32 340.00 1230.00
C 337.60 1233.88 335.85 1236.36 332.00 1239.00
C 327.33 1242.20 323.01 1245.60 318.00 1248.00
C 297.39 1257.86 272.22 1255.25 251.92 1246.08 C 231.62 1236.91 211.92 1230.92 190.98 1224.03 C 170.03 1217.13 144.42 1213.86 123.99 1208.01 C 103.56 1202.15 78.05 1198.01 59.33 1190.67 C 40.61 1183.33 15.23 1178.14 12.22 1154.78 C 9.22 1131.41 27.26 1113.80 30.32 1090.32 C 33.38 1066.84 29.00 1036.35 29.00 1012.00
C 28.39 1005.69 27.98 998.29 29.00 992.00
C 29.86 976.20 39.52 964.33 56.00 964.00
C 65.65 962.83 76.68 963.39 87.00 963.00
C 113.24 962.00 133.48 944.99 140.31 918.31 C 147.13 891.62 179.53 884.02 195.75 906.25 C 211.97 928.47 222.67 943.42 235.30 965.70 C 247.93 987.98 259.32 1005.42 271.77 1027.23 C 284.22 1049.03 295.47 1066.89 310.77 1087.23 C 326.07 1107.57 338.78 1121.28 351.32 1144.68 C 363.86 1168.07 359.10 1199.46 345.00 1222.00
M 337.00 1069.00 
C 330.59 1071.37 327.29 1071.01 321.00 1068.00
C 301.30 1061.43 296.65 1032.80 285.08 1016.92 C 273.50 1001.04 264.38 978.98 252.75 962.25 C 241.13 945.52 230.41 925.33 218.00 909.00
C 240.30 922.67 259.32 939.71 280.25 955.75 C 301.17 971.79 319.67 987.62 340.75 1004.25 C 361.83 1020.88 372.54 1063.66 337.00 1069.00
M 662.00 1072.00 
C 661.47 1078.01 660.99 1084.13 660.00 1089.00
C 660.00 1096.91 657.38 1105.21 656.00 1112.00
C 653.92 1135.58 648.64 1158.89 647.00 1183.00
C 646.63 1188.47 646.60 1194.53 647.00 1200.00
C 647.47 1206.35 648.28 1212.58 640.00 1210.00
C 627.82 1206.21 615.49 1203.72 603.00 1201.00
C 598.28 1200.53 595.85 1199.01 592.00 1198.00
C 586.85 1197.23 582.19 1196.20 577.00 1196.00
C 571.51 1195.79 567.59 1193.75 563.00 1193.00
C 555.49 1192.32 549.63 1192.42 543.00 1191.00
C 538.46 1190.56 533.63 1190.20 529.00 1191.00 C 524.37 1191.80 521.51 1188.87 518.00 1188.00
C 507.91 1187.45 499.00 1186.00 489.00 1186.00
C 472.67 1186.00 456.33 1186.00 440.00 1186.00
C 437.09 1186.00 432.37 1185.07 430.00 1187.00
C 429.76 1187.20 430.00 1188.00 430.00 1188.00
C 427.62 1190.45 422.39 1188.44 419.00 1189.00 C 415.61 1189.56 412.63 1190.72 409.00 1191.00
C 404.44 1191.35 399.50 1190.24 395.00 1191.00
C 387.60 1193.25 379.78 1195.36 372.00 1194.00
C 375.25 1175.73 370.69 1157.42 364.00 1141.00
C 415.46 1168.11 490.43 1163.52 542.02 1144.03 C 593.62 1124.54 626.34 1091.70 664.00 1053.00
C 662.49 1059.11 663.80 1065.95 662.00 1072.00 Z"/>
</g>
<g fill="None" fill-opacity="0.0" stroke="black" stroke-width="1"><path d="
M 905.00 805.00 
C 905.88 814.12 905.88 824.95 905.00 834.00
C 904.63 857.68 899.88 880.36 892.00 902.00
C 915.34 914.77 923.94 941.16 924.00 966.00 C 924.06 990.84 943.96 1007.92 960.00 1025.00
L 960.00 0.00
L 530.00 0.00
C 555.73 7.15 583.69 16.34 606.31 31.70 C 628.92 47.05 644.91 61.30 659.70 85.30 C 674.48 109.31 684.11 134.32 688.00 164.00 C 691.89 193.67 691.42 237.54 691.00 269.00 C 690.58 300.46 692.92 338.43 700.22 366.78 C 707.52 395.12 718.45 418.26 731.08 442.92 C 743.70 467.59 758.39 484.89 774.75 506.25 C 791.11 527.60 809.42 541.84 825.75 563.25 C 842.09 584.66 854.83 604.84 865.70 630.31 C 876.56 655.77 885.96 682.64 892.07 710.93 C 898.19 739.22 905.00 774.60 905.00 805.00 Z"/>
</g>
<g fill="None" fill-opacity="0.0" stroke="black" stroke-width="1"><path d="
M 426.00 7.00 
C 430.17 6.24 434.29 3.47 438.00 2.00
C 433.76 3.03 429.47 6.00 426.00 7.00 Z"/>
</g>
<g fill="None" fill-opacity="0.0" stroke="black" stroke-width="1"><path d="
M 412.00 12.00 
C 414.97 10.96 418.56 7.70 421.00 7.00
C 417.20 7.55 414.95 10.52 412.00 12.00 Z"/>
</g>
<g fill="None" fill-opacity="0.0" stroke="black" stroke-width="1"><path d="
M 366.00 40.00 
C 367.85 38.29 370.08 37.42 372.00 36.00
C 374.29 34.30 376.67 31.70 379.00 30.00
C 375.23 31.71 369.68 35.70 366.00 40.00 Z"/>
</g>
<g fill="None" fill-opacity="0.0" stroke="black" stroke-width="1"><path d="
M 366.00 40.00 
C 359.01 48.18 349.28 55.22 344.00 65.00
C 352.24 54.25 363.25 45.28 372.00 36.00
C 370.08 37.42 367.85 38.29 366.00 40.00 Z"/>
</g>
<g fill="None" fill-opacity="0.0" stroke="black" stroke-width="1"><path d="
M 314.00 135.00 
C 315.56 128.97 318.13 121.51 320.00 115.00
C 317.57 121.19 314.94 127.92 314.00 135.00 Z"/>
</g>
<g fill="None" fill-opacity="0.0" stroke="black" stroke-width="1"><path d="
M 513.00 174.00 
C 513.44 173.84 514.00 174.00 514.00 174.00
C 517.48 171.02 530.33 168.23 535.00 169.00
C 542.03 164.91 550.39 167.77 557.00 170.00
C 574.53 177.59 588.79 193.76 599.00 210.00
C 597.98 185.64 574.36 159.34 548.00 158.00 C 521.64 156.66 496.52 176.69 484.00 199.00
C 492.69 191.32 501.02 178.32 513.00 174.00 Z"/>
</g>
<g fill="None" fill-opacity="0.0" stroke="black" stroke-width="1"><path d="
M 535.00 169.00 
C 534.78 169.13 535.00 170.00 535.00 170.00
C 542.30 167.09 549.28 168.70 557.00 170.00
C 550.39 167.77 542.03 164.91 535.00 169.00 Z"/>
</g>
<g fill="None" fill-opacity="0.0" stroke="black" stroke-width="1"><path d="
M 514.00 174.00 
C 520.44 173.87 527.54 170.13 534.00 170.00
C 534.00 170.00 534.57 170.17 535.00 170.00
C 535.00 170.00 534.78 169.13 535.00 169.00
C 530.33 168.23 517.48 171.02 514.00 174.00 Z"/>
</g>
<g fill="None" fill-opacity="0.0" stroke="black" stroke-width="1"><path d="
M 514.00 174.00 
C 514.00 174.00 513.44 173.84 513.00 174.00
C 515.39 176.47 531.32 172.62 534.00 170.00
C 527.54 170.13 520.44 173.87 514.00 174.00 Z"/>
</g>
<g fill="None" fill-opacity="0.0" stroke="black" stroke-width="1"><path d="
M 158.00 871.00 
C 163.57 869.17 172.48 869.51 178.00 871.00
C 186.33 872.21 192.33 878.98 200.00 882.00
C 198.43 834.66 212.65 790.65 222.00 747.00
C 223.35 740.71 226.79 735.42 229.00 730.00
C 230.97 723.13 234.02 716.91 236.00 710.00
C 237.98 703.12 240.85 698.10 244.00 692.00
C 248.81 680.03 251.20 667.06 259.03 656.03 C 266.85 645.00 265.24 632.19 275.70 621.70 C 286.15 611.21 287.83 600.71 289.00 586.00
C 289.43 580.59 290.13 575.26 291.00 571.00
C 294.36 532.80 327.87 506.90 342.00 473.00
C 344.69 466.54 348.31 460.35 350.00 454.00
C 351.33 446.87 352.89 440.51 353.00 433.00 C 353.11 425.49 352.60 416.45 353.00 409.00 C 353.40 401.55 354.08 393.54 347.25 390.75 C 340.42 387.97 338.33 382.14 338.00 376.00
C 336.13 369.40 336.89 367.22 340.00 361.00
C 343.58 350.81 347.38 344.68 354.67 336.67 C 361.97 328.66 347.20 319.18 345.31 310.69 C 343.42 302.20 338.95 290.12 338.00 280.00 C 337.05 269.88 335.00 255.99 335.00 245.00
C 334.51 239.96 334.00 233.73 334.00 228.00
C 333.63 224.23 333.64 219.71 334.00 216.00
C 334.00 213.05 334.56 210.27 335.00 208.00
C 335.89 201.00 338.74 194.87 340.00 188.00
C 334.68 186.30 331.87 179.88 327.00 177.00
C 323.77 217.22 321.08 263.58 324.00 304.00 C 326.92 344.42 327.86 388.18 332.00 427.00 C 336.14 465.82 310.85 488.43 288.77 514.77 C 266.69 541.11 250.86 560.09 230.75 587.75 C 210.65 615.41 203.60 651.09 195.98 683.98 C 188.36 716.86 172.98 746.63 158.31 777.31 C 143.63 807.98 124.99 844.70 140.00 880.00
C 147.05 878.44 151.17 873.25 158.00 871.00 Z"/>
</g>
<g fill="None" fill-opacity="0.0" stroke="black" stroke-width="1"><path d="
M 504.00 270.00 
C 504.14 266.45 505.36 261.13 506.00 258.00
C 507.06 245.91 514.36 235.80 525.00 230.00
C 532.83 225.73 540.15 227.10 548.00 230.00
C 581.75 242.56 578.37 302.58 542.00 310.00
C 545.96 311.66 550.64 313.47 555.00 315.00
C 558.27 316.15 561.60 316.17 565.00 317.00
C 571.46 318.57 576.74 320.09 582.00 314.00
C 589.50 302.25 594.03 288.21 595.00 274.00
C 595.55 265.92 594.79 257.73 594.00 250.00
C 591.02 223.51 576.73 192.89 549.22 183.78 C 521.72 174.67 494.32 197.03 482.78 221.78 C 471.24 246.52 482.38 285.72 510.00 295.00
C 507.93 286.77 503.65 278.80 504.00 270.00 Z"/>
</g>
<g fill="None" fill-opacity="0.0" stroke="black" stroke-width="1"><path d="
M 376.00 314.00 
C 376.88 312.45 377.54 310.37 379.00 309.00
C 375.02 305.81 371.11 301.97 368.00 298.00
C 356.10 282.00 354.75 262.04 362.00 244.00
C 363.65 239.89 366.34 236.77 370.00 234.00
C 374.97 229.71 380.15 229.29 386.00 232.00
C 387.91 232.88 389.38 233.71 391.00 235.00
C 406.94 247.41 410.51 269.06 408.00 288.00
C 414.23 286.00 419.23 280.41 424.00 276.00
C 429.63 269.48 428.34 260.95 427.00 253.00
C 425.21 242.44 422.92 230.37 417.77 221.23 C 412.62 212.09 408.36 205.62 400.25 198.75 C 392.13 191.89 380.96 188.04 371.03 192.02 C 361.09 196.01 355.36 201.32 350.31 211.31 C 345.25 221.29 342.91 232.98 343.00 245.00 C 343.09 257.02 343.14 271.21 345.07 282.93 C 347.01 294.64 350.34 301.86 355.08 312.92 C 359.82 323.98 369.67 325.12 376.00 314.00 Z"/>
</g>
<g fill="None" fill-opacity="0.0" stroke="black" stroke-width="1"><path d="
M 334.00 216.00 
C 334.00 220.00 334.00 224.00 334.00 228.00
C 334.00 233.73 334.51 239.96 335.00 245.00
C 335.00 232.80 334.04 220.16 335.00 208.00
C 334.56 210.27 334.00 213.05 334.00 216.00 Z"/>
</g>
<g fill="None" fill-opacity="0.0" stroke="black" stroke-width="1"><path d="
M 334.00 228.00 
C 334.00 224.00 334.00 220.00 334.00 216.00
C 333.64 219.71 333.63 224.23 334.00 228.00 Z"/>
</g>
<g fill="None" fill-opacity="0.0" stroke="black" stroke-width="1"><path d="
M 525.00 230.00 
C 532.92 227.60 540.15 228.26 548.00 230.00
C 540.15 227.10 532.83 225.73 525.00 230.00 Z"/>
</g>
<g fill="None" fill-opacity="0.0" stroke="black" stroke-width="1"><path d="
M 305.00 273.00 
C 305.00 271.00 305.00 269.00 305.00 267.00
C 305.00 254.23 305.53 241.43 306.00 229.00
C 304.32 242.88 303.62 258.72 305.00 273.00 Z"/>
</g>
<g fill="None" fill-opacity="0.0" stroke="black" stroke-width="1"><path d="
M 370.00 234.00 
C 370.68 233.49 372.15 232.02 373.00 232.00
C 377.53 231.47 381.50 230.60 386.00 232.00
C 380.15 229.29 374.97 229.71 370.00 234.00 Z"/>
</g>
<g fill="None" fill-opacity="0.0" stroke="black" stroke-width="1"><path d="
M 373.00 232.00 
C 372.94 232.01 373.00 233.00 373.00 233.00
C 379.58 233.44 384.87 231.32 391.00 235.00
C 389.38 233.71 387.91 232.88 386.00 232.00
C 381.50 230.60 377.53 231.47 373.00 232.00 Z"/>
</g>
<g fill="None" fill-opacity="0.0" stroke="black" stroke-width="1"><path d="
M 370.00 234.00 
C 366.34 236.77 363.65 239.89 362.00 244.00
C 364.47 239.11 370.32 236.80 373.00 233.00
C 373.00 233.00 372.94 232.01 373.00 232.00
C 372.15 232.02 370.68 233.49 370.00 234.00 Z"/>
</g>
<g fill="None" fill-opacity="0.0" stroke="black" stroke-width="1"><path d="
M 595.00 274.00 
C 596.43 266.02 595.72 257.38 594.00 250.00
C 594.79 257.73 595.55 265.92 595.00 274.00 Z"/>
</g>
<g fill="None" fill-opacity="0.0" stroke="black" stroke-width="1"><path d="
M 424.00 276.00 
C 431.07 269.46 429.39 260.88 427.00 253.00
C 428.34 260.95 429.63 269.48 424.00 276.00 Z"/>
</g>
<g fill="None" fill-opacity="0.0" stroke="black" stroke-width="1"><path d="
M 504.00 270.00 
C 504.46 266.98 505.63 262.18 506.00 258.00
C 505.36 261.13 504.14 266.45 504.00 270.00 Z"/>
</g>
<g fill="None" fill-opacity="0.0" stroke="black" stroke-width="1"><path d="
M 305.00 273.00 
C 305.00 277.25 305.68 281.02 306.00 285.00
C 306.61 278.72 306.09 273.08 305.00 267.00
C 305.00 269.00 305.00 271.00 305.00 273.00 Z"/>
</g>
<g fill="None" fill-opacity="0.0" stroke="black" stroke-width="1"><path d="
M 399.00 407.00 
C 401.94 408.00 406.29 409.51 409.00 410.00
C 410.00 409.97 411.00 410.00 412.00 410.00
C 412.50 410.00 413.51 409.94 414.00 410.00
C 420.81 410.81 427.16 411.12 434.00 410.00
C 434.49 409.92 435.00 410.00 435.00 410.00
C 436.33 410.00 437.67 410.00 439.00 410.00
C 443.56 409.38 449.49 407.86 454.00 407.00
C 466.63 404.61 479.60 401.79 490.99 396.99 C 502.39 392.19 510.24 385.93 521.00 380.00
C 521.53 379.58 521.65 378.50 522.00 378.00
C 524.63 374.31 530.51 371.44 533.00 370.00
C 538.54 365.83 545.38 359.34 550.75 354.75 C 556.12 350.17 564.50 340.12 570.00 349.00
C 538.72 365.81 518.17 394.82 483.69 406.69 C 449.22 418.57 402.38 427.98 372.00 400.00
C 389.59 421.32 406.91 452.95 437.00 455.00
C 442.97 455.41 448.02 455.82 454.00 455.00
C 454.95 454.87 456.04 455.00 457.00 455.00
C 473.14 451.46 489.40 445.31 504.00 437.00
C 504.38 436.79 505.57 437.18 506.00 437.00
C 510.63 432.15 517.85 427.93 524.00 424.00
C 533.53 417.92 542.34 411.65 552.26 406.26 C 562.18 400.86 573.69 398.75 582.25 390.25 C 590.80 381.74 588.95 366.73 592.00 355.00 C 595.05 343.27 585.28 330.39 574.22 326.78 C 563.17 323.16 551.43 319.08 540.22 315.78 C 529.02 312.47 519.42 306.28 509.08 300.92 C 498.73 295.57 491.05 289.53 480.07 284.93 C 469.10 280.32 452.61 279.00 441.02 282.02 C 429.44 285.05 418.39 289.16 408.75 295.75 C 399.10 302.33 391.87 307.45 383.25 315.25 C 374.62 323.05 368.57 330.12 361.25 339.25 C 353.93 348.38 348.46 356.42 346.00 369.00 C 343.54 381.58 362.65 383.38 370.75 390.25 C 378.85 397.11 389.68 402.34 399.00 407.00
M 466.00 301.00 
C 464.95 293.72 477.04 292.22 481.25 297.75 C 485.46 303.29 470.24 302.80 466.00 301.00
M 414.00 299.00 
C 416.81 300.62 415.52 308.26 411.25 305.74 C 406.98 303.22 411.86 297.77 414.00 299.00 Z"/>
</g>
<g fill="None" fill-opacity="0.0" stroke="black" stroke-width="1"><path d="
M 466.00 301.00 
C 470.24 302.80 485.46 303.29 481.25 297.75 C 477.04 292.22 464.95 293.72 466.00 301.00 Z"/>
</g>
<g fill="None" fill-opacity="0.0" stroke="black" stroke-width="1"><path d="
M 376.00 314.00 
C 377.54 313.04 377.86 310.59 380.00 310.00
C 377.09 305.24 371.61 302.14 368.00 298.00
C 371.11 301.97 375.02 305.81 379.00 309.00
C 377.54 310.37 376.88 312.45 376.00 314.00 Z"/>
</g>
<g fill="None" fill-opacity="0.0" stroke="black" stroke-width="1"><path d="
M 414.00 299.00 
C 411.86 297.77 406.98 303.22 411.25 305.74 C 415.52 308.26 416.81 300.62 414.00 299.00 Z"/>
</g>
<g fill="None" fill-opacity="0.0" stroke="black" stroke-width="1"><path d="
M 565.00 317.00 
C 565.86 317.36 567.32 319.75 568.00 320.00
C 574.26 321.06 578.65 319.25 582.00 314.00
C 576.74 320.09 571.46 318.57 565.00 317.00 Z"/>
</g>
<g fill="None" fill-opacity="0.0" stroke="black" stroke-width="1"><path d="
M 568.00 320.00 
C 567.32 319.75 565.86 317.36 565.00 317.00
C 561.60 316.17 558.27 316.15 555.00 315.00
C 558.79 317.23 563.41 319.22 568.00 320.00 Z"/>
</g>
<g fill="None" fill-opacity="0.0" stroke="black" stroke-width="1"><path d="
M 338.00 376.00 
C 337.69 370.23 338.25 365.98 340.00 361.00
C 336.89 367.22 336.13 369.40 338.00 376.00 Z"/>
</g>
<g fill="None" fill-opacity="0.0" stroke="black" stroke-width="1"><path d="
M 522.00 378.00 
C 524.49 375.72 528.24 374.02 531.00 372.00
C 531.86 371.37 532.24 370.71 533.00 370.00
C 530.51 371.44 524.63 374.31 522.00 378.00 Z"/>
</g>
<g fill="None" fill-opacity="0.0" stroke="black" stroke-width="1"><path d="
M 522.00 378.00 
C 521.65 378.50 521.53 379.58 521.00 380.00
C 524.65 377.99 528.17 375.00 531.00 372.00
C 528.24 374.02 524.49 375.72 522.00 378.00 Z"/>
</g>
<g fill="None" fill-opacity="0.0" stroke="black" stroke-width="1"><path d="
M 295.00 949.00 
C 298.96 952.13 302.56 955.56 306.00 959.00
C 320.74 971.34 334.98 981.04 348.75 995.25 C 362.52 1009.46 374.87 1030.04 368.78 1050.78 C 362.68 1071.51 339.18 1081.49 319.00 1077.00
C 333.78 1094.19 341.56 1113.68 360.75 1126.25 C 379.95 1138.81 405.41 1144.48 428.00 1149.00
C 431.29 1149.66 436.09 1150.72 439.00 1151.00
C 442.33 1151.00 445.67 1151.00 449.00 1151.00
C 453.33 1151.00 457.67 1151.00 462.00 1151.00
C 466.33 1151.00 470.67 1151.00 475.00 1151.00
C 481.53 1150.37 489.54 1149.09 496.00 1148.00
C 511.87 1145.32 527.10 1141.29 542.00 1136.00
C 547.61 1132.87 554.70 1130.94 560.00 1127.00
C 570.10 1117.66 584.41 1113.23 595.00 1104.00
C 599.99 1099.65 605.31 1094.23 611.00 1090.00
C 620.63 1082.84 628.02 1074.29 637.25 1066.25 C 646.47 1058.21 651.02 1049.51 661.30 1041.30 C 671.57 1033.09 669.00 1012.83 669.00 1000.00
C 669.00 988.00 669.00 976.00 669.00 964.00
C 669.00 955.33 669.00 946.67 669.00 938.00
C 668.51 932.97 668.52 926.97 669.00 922.00
C 669.00 909.27 674.04 902.89 683.92 894.92 C 693.79 886.95 708.39 894.05 719.33 893.67 C 730.27 893.28 727.16 871.88 729.00 862.00 C 730.84 852.12 731.16 833.60 732.00 823.00
C 733.18 808.13 731.79 792.51 731.00 778.00
C 731.94 752.75 725.15 724.08 719.99 701.01 C 714.83 677.94 702.89 659.45 694.75 638.25 C 686.61 617.04 663.70 608.79 658.00 587.00 C 652.30 565.21 650.21 536.79 640.98 516.02 C 631.74 495.26 624.74 475.44 613.31 455.69 C 601.87 435.95 597.16 413.94 587.00 394.00
C 561.16 408.01 536.04 421.21 512.08 439.08 C 488.12 456.95 449.25 469.17 420.70 458.31 C 392.14 447.44 381.17 418.75 362.00 398.00
C 360.57 415.98 361.39 440.85 356.99 457.99 C 352.60 475.13 343.83 486.62 334.75 500.75 C 325.68 514.89 317.24 526.40 310.77 541.77 C 304.30 557.14 294.29 576.81 299.00 595.00 C 303.72 613.19 292.87 626.25 283.77 640.77 C 274.67 655.29 268.17 666.60 260.92 681.92 C 253.68 697.25 248.20 712.50 242.78 728.78 C 237.35 745.05 231.89 762.25 228.33 779.33 C 224.77 796.41 221.01 818.56 219.93 835.93 C 218.85 853.29 211.46 878.66 224.77 890.23 C 238.08 901.80 247.14 909.64 259.75 920.25 C 272.37 930.85 282.34 939.01 295.00 949.00 Z"/>
</g>
<g fill="None" fill-opacity="0.0" stroke="black" stroke-width="1"><path d="
M 409.00 410.00 
C 406.29 409.51 401.94 408.00 399.00 407.00
C 402.51 408.75 404.45 410.12 409.00 410.00 Z"/>
</g>
<g fill="None" fill-opacity="0.0" stroke="black" stroke-width="1"><path d="
M 439.00 410.00 
C 442.12 410.00 444.84 408.92 448.00 410.00 C 451.15 411.07 452.87 407.35 454.00 407.00
C 449.49 407.86 443.56 409.38 439.00 410.00 Z"/>
</g>
<g fill="None" fill-opacity="0.0" stroke="black" stroke-width="1"><path d="
M 435.00 410.00 
C 435.00 410.00 434.49 409.92 434.00 410.00
C 430.69 414.32 417.65 412.48 414.00 410.00
C 413.51 409.94 412.50 410.00 412.00 410.00
C 415.47 411.17 433.75 417.61 435.00 410.00 Z"/>
</g>
<g fill="None" fill-opacity="0.0" stroke="black" stroke-width="1"><path d="
M 434.00 410.00 
C 427.16 411.12 420.81 410.81 414.00 410.00
C 417.65 412.48 430.69 414.32 434.00 410.00 Z"/>
</g>
<g fill="None" fill-opacity="0.0" stroke="black" stroke-width="1"><path d="
M 506.00 437.00 
C 513.40 433.89 518.04 428.85 524.00 424.00
C 517.85 427.93 510.63 432.15 506.00 437.00 Z"/>
</g>
<g fill="None" fill-opacity="0.0" stroke="black" stroke-width="1"><path d="
M 457.00 455.00 
C 464.48 455.00 470.25 452.02 477.00 450.00
C 485.63 447.42 497.57 443.73 504.00 437.00
C 489.40 445.31 473.14 451.46 457.00 455.00 Z"/>
</g>
<g fill="None" fill-opacity="0.0" stroke="black" stroke-width="1"><path d="
M 457.00 455.00 
C 456.04 455.00 454.95 454.87 454.00 455.00
C 450.10 456.35 442.83 458.93 438.00 457.00
C 443.41 461.70 452.87 456.04 459.00 456.00 C 465.13 455.96 472.01 452.18 477.00 450.00
C 470.25 452.02 464.48 455.00 457.00 455.00 Z"/>
</g>
<g fill="None" fill-opacity="0.0" stroke="black" stroke-width="1"><path d="
M 342.00 473.00 
C 345.69 466.59 348.58 461.63 350.00 454.00
C 348.31 460.35 344.69 466.54 342.00 473.00 Z"/>
</g>
<g fill="None" fill-opacity="0.0" stroke="black" stroke-width="1"><path d="
M 438.00 457.00 
C 442.83 458.93 450.10 456.35 454.00 455.00
C 448.02 455.82 442.97 455.41 437.00 455.00
C 437.10 455.06 437.62 456.67 438.00 457.00 Z"/>
</g>
<g fill="None" fill-opacity="0.0" stroke="black" stroke-width="1"><path d="
M 297.00 475.00 
C 297.98 473.86 300.03 473.06 301.00 472.00
C 302.80 469.38 304.33 466.70 306.00 464.00
C 302.87 467.59 299.67 470.86 297.00 475.00 Z"/>
</g>
<g fill="None" fill-opacity="0.0" stroke="black" stroke-width="1"><path d="
M 297.00 475.00 
C 292.61 481.80 286.71 488.14 282.00 495.00
C 288.40 487.66 295.24 480.40 301.00 472.00
C 300.03 473.06 297.98 473.86 297.00 475.00 Z"/>
</g>
<g fill="None" fill-opacity="0.0" stroke="black" stroke-width="1"><path d="
M 256.00 525.00 
C 263.27 516.66 271.42 509.85 278.00 501.00
C 270.82 509.24 260.66 516.40 256.00 525.00 Z"/>
</g>
<g fill="None" fill-opacity="0.0" stroke="black" stroke-width="1"><path d="
M 289.00 586.00 
C 289.82 581.77 290.59 575.68 291.00 571.00
C 290.13 575.26 289.43 580.59 289.00 586.00 Z"/>
</g>
<g fill="None" fill-opacity="0.0" stroke="black" stroke-width="1"><path d="
M 769.00 976.00 
C 770.22 976.21 770.85 976.54 772.00 977.00
C 780.70 978.73 791.79 975.83 799.00 976.00
C 800.87 976.04 803.16 976.33 805.00 976.00
C 808.08 975.13 813.64 971.56 817.00 970.00
C 822.56 966.63 827.15 963.02 833.00 960.00
C 849.87 947.51 867.79 931.94 873.00 911.00
C 860.01 903.46 841.99 901.78 829.08 894.92 C 816.16 888.07 797.75 888.44 788.77 875.23 C 779.79 862.02 795.18 844.83 799.08 831.08 C 802.97 817.32 809.95 798.69 812.00 784.00
C 812.52 780.28 812.99 775.26 814.00 772.00
C 814.24 770.56 814.83 769.58 815.00 768.00
C 816.13 757.32 815.85 744.70 815.00 734.00
C 811.02 661.54 747.08 609.32 684.00 584.00
C 704.87 606.16 728.90 615.95 751.77 636.23 C 774.64 656.51 788.69 679.91 797.01 709.99 C 805.33 740.07 801.41 785.72 791.78 814.78 C 782.14 843.84 766.91 868.95 751.98 893.98 C 737.04 919.00 733.80 969.94 769.00 976.00 Z"/>
</g>
<g fill="None" fill-opacity="0.0" stroke="black" stroke-width="1"><path d="
M 780.00 801.00 
C 781.80 790.16 785.12 778.50 787.00 768.00
C 792.73 699.86 754.47 633.57 692.00 607.00
C 742.44 690.30 741.74 793.32 739.00 890.00
C 755.87 861.93 774.59 833.66 780.00 801.00 Z"/>
</g>
<g fill="None" fill-opacity="0.0" stroke="black" stroke-width="1"><path d="
M 190.00 627.00 
C 191.22 623.53 193.60 618.95 195.00 615.00
C 193.19 618.74 191.04 622.67 190.00 627.00 Z"/>
</g>
<g fill="None" fill-opacity="0.0" stroke="black" stroke-width="1"><path d="
M 175.00 688.00 
C 176.68 683.45 178.24 679.44 179.00 674.00
C 177.94 678.39 176.09 683.22 175.00 688.00 Z"/>
</g>
<g fill="None" fill-opacity="0.0" stroke="black" stroke-width="1"><path d="
M 236.00 710.00 
C 238.30 704.13 241.52 698.16 244.00 692.00
C 240.85 698.10 237.98 703.12 236.00 710.00 Z"/>
</g>
<g fill="None" fill-opacity="0.0" stroke="black" stroke-width="1"><path d="
M 160.00 729.00 
C 161.56 725.59 163.60 721.93 165.00 718.00
C 163.28 721.56 161.32 724.99 160.00 729.00 Z"/>
</g>
<g fill="None" fill-opacity="0.0" stroke="black" stroke-width="1"><path d="
M 222.00 747.00 
C 223.68 741.70 227.31 735.90 229.00 730.00
C 226.79 735.42 223.35 740.71 222.00 747.00 Z"/>
</g>
<g fill="None" fill-opacity="0.0" stroke="black" stroke-width="1"><path d="
M 815.00 768.00 
C 817.26 758.43 816.87 743.67 815.00 734.00
C 815.85 744.70 816.13 757.32 815.00 768.00 Z"/>
</g>
<g fill="None" fill-opacity="0.0" stroke="black" stroke-width="1"><path d="
M 780.00 801.00 
C 783.00 790.71 786.07 779.78 787.00 768.00
C 785.12 778.50 781.80 790.16 780.00 801.00 Z"/>
</g>
<g fill="None" fill-opacity="0.0" stroke="black" stroke-width="1"><path d="
M 812.00 784.00 
C 812.88 780.60 813.29 776.30 814.00 772.00
C 812.99 775.26 812.52 780.28 812.00 784.00 Z"/>
</g>
<g fill="None" fill-opacity="0.0" stroke="black" stroke-width="1"><path d="
M 732.00 823.00 
C 734.64 809.31 733.40 791.40 731.00 778.00
C 731.79 792.51 733.18 808.13 732.00 823.00 Z"/>
</g>
<g fill="None" fill-opacity="0.0" stroke="black" stroke-width="1"><path d="
M 905.00 834.00 
C 905.88 824.95 905.88 814.12 905.00 805.00
C 905.00 814.67 905.00 824.33 905.00 834.00 Z"/>
</g>
<g fill="None" fill-opacity="0.0" stroke="black" stroke-width="1"><path d="
M 115.00 864.00 
C 114.36 847.23 115.44 832.22 120.00 817.00
C 114.05 831.27 112.70 847.91 115.00 864.00 Z"/>
</g>
<g fill="None" fill-opacity="0.0" stroke="black" stroke-width="1"><path d="
M 158.00 871.00 
C 163.56 869.95 172.39 870.20 178.00 871.00
C 172.48 869.51 163.57 869.17 158.00 871.00 Z"/>
</g>
<g fill="None" fill-opacity="0.0" stroke="black" stroke-width="1"><path d="
M 87.00 963.00 
C 77.39 964.37 66.31 963.79 56.00 964.00
C 39.52 964.33 29.86 976.20 29.00 992.00
C 28.64 998.62 29.00 1005.37 29.00 1012.00
C 29.00 1036.35 33.38 1066.84 30.32 1090.32 C 27.26 1113.80 9.22 1131.41 12.22 1154.78 C 15.23 1178.14 40.61 1183.33 59.33 1190.67 C 78.05 1198.01 103.56 1202.15 123.99 1208.01 C 144.42 1213.86 170.03 1217.13 190.98 1224.03 C 211.92 1230.92 231.62 1236.91 251.92 1246.08 C 272.22 1255.25 297.39 1257.86 318.00 1248.00
C 321.73 1245.74 326.83 1242.20 330.00 1239.00
C 335.28 1233.67 340.60 1227.63 345.00 1222.00
C 359.10 1199.46 363.86 1168.07 351.32 1144.68 C 338.78 1121.28 326.07 1107.57 310.77 1087.23 C 295.47 1066.89 284.22 1049.03 271.77 1027.23 C 259.32 1005.42 247.93 987.98 235.30 965.70 C 222.67 943.42 211.97 928.47 195.75 906.25 C 179.53 884.02 147.13 891.62 140.31 918.31 C 133.48 944.99 113.24 962.00 87.00 963.00 Z"/>
</g>
<g fill="None" fill-opacity="0.0" stroke="black" stroke-width="1"><path d="
M 684.00 960.00 
C 684.76 967.87 684.75 977.20 684.00 985.00
C 684.00 1013.77 681.38 1044.49 678.00 1072.00 C 674.61 1099.50 669.43 1125.13 666.00 1152.00 C 662.56 1178.87 658.32 1207.26 673.23 1230.77 C 688.14 1254.28 714.54 1256.00 740.00 1256.00
C 747.15 1255.31 754.18 1252.52 761.00 1250.00
C 762.99 1249.27 764.99 1248.79 767.00 1248.00
C 767.00 1248.00 767.66 1248.23 768.00 1248.00
C 771.09 1243.26 777.87 1240.23 782.00 1238.00
C 792.02 1232.59 800.80 1222.83 809.25 1214.25 C 817.70 1205.67 826.55 1197.71 834.00 1189.00
C 835.31 1187.47 836.52 1186.26 838.00 1185.00
C 840.99 1181.76 842.64 1178.42 847.00 1177.00
C 847.19 1176.58 847.00 1176.00 847.00 1176.00
C 848.28 1173.38 858.61 1165.12 860.00 1166.00
C 860.24 1165.75 861.00 1166.00 861.00 1166.00
C 865.81 1162.33 870.79 1158.72 876.00 1156.00
C 882.67 1150.36 889.41 1146.80 897.00 1143.00
C 906.04 1136.74 916.98 1132.51 926.00 1128.00
C 929.27 1125.76 932.53 1124.13 936.00 1122.00
C 943.44 1115.95 952.51 1109.54 960.00 1103.00
L 960.00 1056.00
C 942.60 1036.41 924.91 1019.99 911.77 997.23 C 898.63 974.47 911.14 933.96 882.00 921.00
C 874.02 936.89 863.08 950.85 848.25 962.25 C 833.42 973.64 818.07 984.24 799.01 988.01 C 779.95 991.77 755.65 987.93 742.25 971.75 C 728.85 955.58 731.68 931.64 732.00 912.00
C 720.14 912.84 696.77 900.50 687.25 912.25 C 677.73 924.00 684.00 945.51 684.00 960.00 Z"/>
</g>
<g fill="None" fill-opacity="0.0" stroke="black" stroke-width="1"><path d="
M 321.00 1068.00 
C 326.51 1069.84 331.08 1070.36 337.00 1069.00
C 372.54 1063.66 361.83 1020.88 340.75 1004.25 C 319.67 987.62 301.17 971.79 280.25 955.75 C 259.32 939.71 240.30 922.67 218.00 909.00
C 230.41 925.33 241.13 945.52 252.75 962.25 C 264.38 978.98 273.50 1001.04 285.08 1016.92 C 296.65 1032.80 301.30 1061.43 321.00 1068.00 Z"/>
</g>
<g fill="None" fill-opacity="0.0" stroke="black" stroke-width="1"><path d="
M 669.00 938.00 
C 669.00 932.67 669.00 927.33 669.00 922.00
C 668.52 926.97 668.51 932.97 669.00 938.00 Z"/>
</g>
<g fill="None" fill-opacity="0.0" stroke="black" stroke-width="1"><path d="
M 100.00 938.00 
C 99.48 938.47 98.52 940.81 98.00 941.00
C 102.17 940.15 106.49 935.37 109.00 932.00
C 106.61 934.53 102.91 936.50 100.00 938.00 Z"/>
</g>
<g fill="None" fill-opacity="0.0" stroke="black" stroke-width="1"><path d="
M 66.00 941.00 
C 75.61 942.16 84.20 941.72 94.00 941.00
C 95.28 940.91 96.74 941.26 98.00 941.00
C 98.52 940.81 99.48 938.47 100.00 938.00
C 89.51 943.42 77.58 941.23 66.00 941.00 Z"/>
</g>
<g fill="None" fill-opacity="0.0" stroke="black" stroke-width="1"><path d="
M 45.00 943.00 
C 47.57 942.68 50.40 943.00 53.00 943.00
C 53.00 943.00 53.50 943.00 54.00 943.00
C 54.62 942.65 56.39 941.16 57.00 941.00
C 52.81 941.23 48.62 942.10 45.00 943.00 Z"/>
</g>
<g fill="None" fill-opacity="0.0" stroke="black" stroke-width="1"><path d="
M 54.00 943.00 
C 61.30 943.00 67.89 942.66 75.00 944.00 C 82.11 945.34 88.21 942.34 94.00 941.00
C 84.20 941.72 75.61 942.16 66.00 941.00
C 63.03 940.94 59.97 940.84 57.00 941.00
C 56.39 941.16 54.62 942.65 54.00 943.00 Z"/>
</g>
<g fill="None" fill-opacity="0.0" stroke="black" stroke-width="1"><path d="
M 39.00 946.00 
C 42.82 944.59 50.07 945.17 53.00 943.00
C 50.40 943.00 47.57 942.68 45.00 943.00
C 42.05 943.73 41.33 944.77 39.00 946.00 Z"/>
</g>
<g fill="None" fill-opacity="0.0" stroke="black" stroke-width="1"><path d="
M 306.00 959.00 
C 302.56 955.56 298.96 952.13 295.00 949.00
C 298.68 952.40 302.02 955.86 306.00 959.00 Z"/>
</g>
<g fill="None" fill-opacity="0.0" stroke="black" stroke-width="1"><path d="
M 15.00 964.00 
C 17.10 960.88 21.23 957.49 24.00 955.00
C 20.50 957.55 17.13 959.65 15.00 964.00 Z"/>
</g>
<g fill="None" fill-opacity="0.0" stroke="black" stroke-width="1"><path d="
M 684.00 985.00 
C 684.75 977.20 684.76 967.87 684.00 960.00
C 684.00 968.33 684.00 976.67 684.00 985.00 Z"/>
</g>
<g fill="None" fill-opacity="0.0" stroke="black" stroke-width="1"><path d="
M 817.00 970.00 
C 818.65 969.24 820.52 968.72 822.00 968.00
C 825.70 965.46 829.09 962.71 833.00 960.00
C 827.15 963.02 822.56 966.63 817.00 970.00 Z"/>
</g>
<g fill="None" fill-opacity="0.0" stroke="black" stroke-width="1"><path d="
M 56.00 964.00 
C 66.31 963.79 77.39 964.37 87.00 963.00
C 76.68 963.39 65.65 962.83 56.00 964.00 Z"/>
</g>
<g fill="None" fill-opacity="0.0" stroke="black" stroke-width="1"><path d="
M 669.00 1000.00 
C 670.83 1000.15 669.33 1002.76 671.00 1003.00
C 671.44 989.92 671.30 975.91 669.00 964.00
C 669.00 976.00 669.00 988.00 669.00 1000.00 Z"/>
</g>
<g fill="None" fill-opacity="0.0" stroke="black" stroke-width="1"><path d="
M 817.00 970.00 
C 813.64 971.56 808.08 975.13 805.00 976.00
C 810.92 974.95 817.55 971.05 822.00 968.00
C 820.52 968.72 818.65 969.24 817.00 970.00 Z"/>
</g>
<g fill="None" fill-opacity="0.0" stroke="black" stroke-width="1"><path d="
M 772.00 977.00 
C 776.82 978.93 789.43 979.48 795.00 978.00
C 796.59 977.33 797.23 976.33 799.00 976.00
C 791.79 975.83 780.70 978.73 772.00 977.00 Z"/>
</g>
<g fill="None" fill-opacity="0.0" stroke="black" stroke-width="1"><path d="
M 795.00 978.00 
C 789.43 979.48 776.82 978.93 772.00 977.00
C 770.85 976.54 770.22 976.21 769.00 976.00
C 775.85 978.82 787.19 981.31 795.00 978.00 Z"/>
</g>
<g fill="None" fill-opacity="0.0" stroke="black" stroke-width="1"><path d="
M 8.00 1024.00 
C 7.50 1010.77 6.71 995.75 9.00 983.00
C 5.40 994.38 6.26 1011.79 8.00 1024.00 Z"/>
</g>
<g fill="None" fill-opacity="0.0" stroke="black" stroke-width="1"><path d="
M 29.00 1012.00 
C 29.00 1005.37 28.64 998.62 29.00 992.00
C 27.98 998.29 28.39 1005.69 29.00 1012.00 Z"/>
</g>
<g fill="None" fill-opacity="0.0" stroke="black" stroke-width="1"><path d="
M 10.00 1047.00 
C 9.70 1042.56 9.69 1037.85 9.00 1034.00
C 9.30 1038.44 9.31 1043.15 10.00 1047.00 Z"/>
</g>
<g fill="None" fill-opacity="0.0" stroke="black" stroke-width="1"><path d="
M 395.00 1191.00 
C 400.10 1189.45 407.50 1188.96 413.00 1188.00
C 415.70 1187.24 428.22 1185.14 430.00 1187.00
C 432.37 1185.07 437.09 1186.00 440.00 1186.00
C 455.39 1184.51 473.69 1184.52 489.00 1186.00
C 499.00 1186.00 507.91 1187.45 518.00 1188.00
C 525.63 1188.41 535.79 1189.45 543.00 1191.00
C 549.63 1192.42 555.49 1192.32 563.00 1193.00
C 567.66 1193.42 572.74 1195.39 577.00 1196.00
C 582.19 1196.20 586.85 1197.23 592.00 1198.00
C 595.68 1198.55 599.72 1200.28 603.00 1201.00
C 615.49 1203.72 627.82 1206.21 640.00 1210.00
C 641.97 1210.26 644.02 1209.81 646.00 1210.00
C 646.00 1206.67 646.00 1203.34 646.00 1200.00
C 646.00 1194.22 646.10 1188.05 647.00 1183.00
C 648.64 1158.89 653.92 1135.58 656.00 1112.00
C 656.73 1103.70 658.37 1094.73 660.00 1087.00
C 661.57 1082.47 661.13 1076.29 662.00 1072.00
C 663.80 1065.95 662.49 1059.11 664.00 1053.00
C 626.34 1091.70 593.62 1124.54 542.02 1144.03 C 490.43 1163.52 415.46 1168.11 364.00 1141.00
C 370.69 1157.42 375.25 1175.73 372.00 1194.00
C 379.78 1195.36 387.60 1193.25 395.00 1191.00 Z"/>
</g>
<g fill="None" fill-opacity="0.0" stroke="black" stroke-width="1"><path d="
M 337.00 1069.00 
C 331.08 1070.36 326.51 1069.84 321.00 1068.00
C 327.29 1071.01 330.59 1071.37 337.00 1069.00 Z"/>
</g>
<g fill="None" fill-opacity="0.0" stroke="black" stroke-width="1"><path d="
M 660.00 1087.00 
C 659.85 1087.45 660.00 1088.50 660.00 1089.00
C 660.99 1084.13 661.47 1078.01 662.00 1072.00
C 661.13 1076.29 661.57 1082.47 660.00 1087.00 Z"/>
</g>
<g fill="None" fill-opacity="0.0" stroke="black" stroke-width="1"><path d="
M 7.00 1098.00 
C 8.42 1094.00 9.42 1090.64 10.00 1086.00
C 9.20 1089.63 8.03 1094.07 7.00 1098.00 Z"/>
</g>
<g fill="None" fill-opacity="0.0" stroke="black" stroke-width="1"><path d="
M 656.00 1112.00 
C 657.38 1105.21 660.00 1096.91 660.00 1089.00
C 660.00 1088.50 659.85 1087.45 660.00 1087.00
C 658.37 1094.73 656.73 1103.70 656.00 1112.00 Z"/>
</g>
<g fill="None" fill-opacity="0.0" stroke="black" stroke-width="1"><path d="
M 595.00 1104.00 
C 600.86 1100.10 605.53 1094.77 611.00 1090.00
C 605.31 1094.23 599.99 1099.65 595.00 1104.00 Z"/>
</g>
<g fill="None" fill-opacity="0.0" stroke="black" stroke-width="1"><path d="
M 0.00 1114.00 
L 0.00 1183.00
C 0.50 1183.00 1.00 1183.00 1.00 1183.00
C 3.41 1180.75 -0.10 1170.66 1.00 1166.00 C 2.10 1161.34 0.55 1153.35 1.00 1148.00 C 1.45 1142.65 0.91 1135.61 1.00 1130.00 C 1.09 1124.39 0.78 1118.33 2.00 1113.00
C 1.87 1113.27 0.19 1113.59 0.00 1114.00 Z"/>
</g>
<g fill="None" fill-opacity="0.0" stroke="black" stroke-width="1"><path d="
M 926.00 1128.00 
C 929.94 1126.03 932.80 1124.61 936.00 1122.00
C 932.53 1124.13 929.27 1125.76 926.00 1128.00 Z"/>
</g>
<g fill="None" fill-opacity="0.0" stroke="black" stroke-width="1"><path d="
M 542.00 1136.00 
C 548.15 1133.81 554.72 1131.88 560.00 1127.00
C 554.70 1130.94 547.61 1132.87 542.00 1136.00 Z"/>
</g>
<g fill="None" fill-opacity="0.0" stroke="black" stroke-width="1"><path d="
M 845.00 1204.00 
C 841.08 1207.92 836.87 1212.13 833.00 1216.00
C 808.50 1244.67 776.19 1273.54 738.00 1275.00
C 738.02 1275.00 738.00 1276.00 738.00 1276.00
L 960.00 1276.00
L 960.00 1129.00
C 919.18 1150.87 880.80 1173.41 845.00 1204.00 Z"/>
</g>
<g fill="None" fill-opacity="0.0" stroke="black" stroke-width="1"><path d="
M 876.00 1156.00 
C 883.12 1152.28 890.55 1147.47 897.00 1143.00
C 889.41 1146.80 882.67 1150.36 876.00 1156.00 Z"/>
</g>
<g fill="None" fill-opacity="0.0" stroke="black" stroke-width="1"><path d="
M 475.00 1151.00 
C 479.17 1151.00 482.77 1149.86 487.00 1151.00 C 491.23 1152.14 493.27 1148.83 496.00 1148.00
C 489.54 1149.09 481.53 1150.37 475.00 1151.00 Z"/>
</g>
<g fill="None" fill-opacity="0.0" stroke="black" stroke-width="1"><path d="
M 439.00 1151.00 
C 436.09 1150.72 431.29 1149.66 428.00 1149.00
C 431.53 1150.18 434.32 1151.00 439.00 1151.00 Z"/>
</g>
<g fill="None" fill-opacity="0.0" stroke="black" stroke-width="1"><path d="
M 462.00 1151.00 
C 457.67 1151.00 453.33 1151.00 449.00 1151.00
C 453.02 1151.39 457.91 1151.40 462.00 1151.00 Z"/>
</g>
<g fill="None" fill-opacity="0.0" stroke="black" stroke-width="1"><path d="
M 847.00 1176.00 
C 851.47 1173.61 856.64 1169.51 860.00 1166.00
C 858.61 1165.12 848.28 1173.38 847.00 1176.00 Z"/>
</g>
<g fill="None" fill-opacity="0.0" stroke="black" stroke-width="1"><path d="
M 847.00 1176.00 
C 847.00 1176.00 847.19 1176.58 847.00 1177.00
C 845.60 1180.09 840.58 1182.80 838.00 1185.00
C 836.52 1186.26 835.31 1187.47 834.00 1189.00
C 842.41 1181.23 852.39 1173.43 861.00 1166.00
C 861.00 1166.00 860.24 1165.75 860.00 1166.00
C 856.64 1169.51 851.47 1173.61 847.00 1176.00 Z"/>
</g>
<g fill="None" fill-opacity="0.0" stroke="black" stroke-width="1"><path d="
M 838.00 1185.00 
C 840.58 1182.80 845.60 1180.09 847.00 1177.00
C 842.64 1178.42 840.99 1181.76 838.00 1185.00 Z"/>
</g>
<g fill="None" fill-opacity="0.0" stroke="black" stroke-width="1"><path d="
M 0.00 1276.00 
L 271.00 1276.00
C 252.37 1272.48 233.70 1265.71 216.07 1257.93 C 198.45 1250.14 178.67 1245.63 160.22 1240.78 C 141.78 1235.93 120.62 1231.11 102.67 1226.33 C 84.73 1221.55 62.88 1216.61 47.07 1208.93 C 31.26 1201.24 9.65 1199.19 1.00 1183.00
C 1.00 1183.00 0.50 1183.00 0.00 1183.00
L 0.00 1276.00 Z"/>
</g>
<g fill="None" fill-opacity="0.0" stroke="black" stroke-width="1"><path d="
M 646.00 1200.00 
C 646.00 1199.96 647.00 1200.00 647.00 1200.00
C 646.60 1194.53 646.63 1188.47 647.00 1183.00
C 646.10 1188.05 646.00 1194.22 646.00 1200.00 Z"/>
</g>
<g fill="None" fill-opacity="0.0" stroke="black" stroke-width="1"><path d="
M 440.00 1186.00 
C 456.33 1186.00 472.67 1186.00 489.00 1186.00
C 473.69 1184.52 455.39 1184.51 440.00 1186.00 Z"/>
</g>
<g fill="None" fill-opacity="0.0" stroke="black" stroke-width="1"><path d="
M 413.00 1188.00 
C 413.49 1187.92 414.50 1188.00 415.00 1188.00
C 419.93 1188.00 425.09 1188.45 430.00 1188.00
C 430.00 1188.00 429.76 1187.20 430.00 1187.00
C 428.22 1185.14 415.70 1187.24 413.00 1188.00 Z"/>
</g>
<g fill="None" fill-opacity="0.0" stroke="black" stroke-width="1"><path d="
M 395.00 1191.00 
C 399.50 1190.24 404.44 1191.35 409.00 1191.00
C 410.55 1190.72 413.50 1188.27 415.00 1188.00
C 414.50 1188.00 413.49 1187.92 413.00 1188.00
C 407.50 1188.96 400.10 1189.45 395.00 1191.00 Z"/>
</g>
<g fill="None" fill-opacity="0.0" stroke="black" stroke-width="1"><path d="
M 409.00 1191.00 
C 412.63 1190.72 415.61 1189.56 419.00 1189.00 C 422.39 1188.44 427.62 1190.45 430.00 1188.00
C 425.09 1188.45 419.93 1188.00 415.00 1188.00
C 413.50 1188.27 410.55 1190.72 409.00 1191.00 Z"/>
</g>
<g fill="None" fill-opacity="0.0" stroke="black" stroke-width="1"><path d="
M 543.00 1191.00 
C 535.79 1189.45 525.63 1188.41 518.00 1188.00
C 521.51 1188.87 524.37 1191.80 529.00 1191.00 C 533.63 1190.20 538.46 1190.56 543.00 1191.00 Z"/>
</g>
<g fill="None" fill-opacity="0.0" stroke="black" stroke-width="1"><path d="
M 577.00 1196.00 
C 572.74 1195.39 567.66 1193.42 563.00 1193.00
C 567.59 1193.75 571.51 1195.79 577.00 1196.00 Z"/>
</g>
<g fill="None" fill-opacity="0.0" stroke="black" stroke-width="1"><path d="
M 603.00 1201.00 
C 599.72 1200.28 595.68 1198.55 592.00 1198.00
C 595.85 1199.01 598.28 1200.53 603.00 1201.00 Z"/>
</g>
<g fill="None" fill-opacity="0.0" stroke="black" stroke-width="1"><path d="
M 640.00 1210.00 
C 648.28 1212.58 647.47 1206.35 647.00 1200.00
C 647.00 1200.00 646.00 1199.96 646.00 1200.00
C 646.00 1203.34 646.00 1206.67 646.00 1210.00
C 644.02 1209.81 641.97 1210.26 640.00 1210.00 Z"/>
</g>
<g fill="None" fill-opacity="0.0" stroke="black" stroke-width="1"><path d="
M 833.00 1216.00 
C 836.87 1212.13 841.08 1207.92 845.00 1204.00
C 840.76 1207.62 836.66 1211.71 833.00 1216.00 Z"/>
</g>
<g fill="None" fill-opacity="0.0" stroke="black" stroke-width="1"><path d="
M 295.00 1276.00 
L 720.00 1276.00
C 720.00 1275.50 720.00 1275.00 720.00 1275.00
C 705.76 1274.46 691.88 1269.52 679.70 1263.30 C 667.51 1257.09 662.28 1248.41 653.30 1238.70 C 644.33 1228.98 628.77 1229.17 615.67 1225.33 C 602.57 1221.49 587.12 1219.12 573.00 1216.00 C 558.89 1212.88 542.99 1212.17 528.00 1210.00 C 513.01 1207.83 496.77 1207.01 481.00 1206.00 C 465.23 1204.99 446.73 1206.74 431.02 1207.02 C 415.32 1207.31 401.55 1213.29 386.01 1214.01 C 370.47 1214.73 366.08 1226.22 358.75 1237.75 C 351.43 1249.29 342.41 1254.15 332.23 1262.23 C 322.05 1270.31 306.80 1272.56 295.00 1276.00 Z"/>
</g>
<g fill="None" fill-opacity="0.0" stroke="black" stroke-width="1"><path d="
M 330.00 1239.00 
C 330.93 1238.28 332.12 1237.69 333.00 1237.00
C 335.01 1234.65 338.10 1232.46 340.00 1230.00
C 341.66 1227.32 343.32 1224.68 345.00 1222.00
C 340.60 1227.63 335.28 1233.67 330.00 1239.00 Z"/>
</g>
<g fill="None" fill-opacity="0.0" stroke="black" stroke-width="1"><path d="
M 333.00 1237.00 
C 332.57 1237.51 332.40 1238.57 332.00 1239.00
C 335.85 1236.36 337.60 1233.88 340.00 1230.00
C 338.10 1232.46 335.01 1234.65 333.00 1237.00 Z"/>
</g>
<g fill="None" fill-opacity="0.0" stroke="black" stroke-width="1"><path d="
M 330.00 1239.00 
C 326.83 1242.20 321.73 1245.74 318.00 1248.00
C 323.01 1245.60 327.33 1242.20 332.00 1239.00
C 332.40 1238.57 332.57 1237.51 333.00 1237.00
C 332.12 1237.69 330.93 1238.28 330.00 1239.00 Z"/>
</g>
<g fill="None" fill-opacity="0.0" stroke="black" stroke-width="1"><path d="
M 768.00 1248.00 
C 772.80 1244.78 778.04 1241.00 782.00 1238.00
C 777.87 1240.23 771.09 1243.26 768.00 1248.00 Z"/>
</g>
<g fill="None" fill-opacity="0.0" stroke="black" stroke-width="1"><path d="
M 761.00 1250.00 
C 758.69 1251.18 756.29 1253.00 754.00 1254.00
C 758.62 1252.73 764.18 1252.04 767.00 1248.00
C 764.99 1248.79 762.99 1249.27 761.00 1250.00 Z"/>
</g>
<g fill="None" fill-opacity="0.0" stroke="black" stroke-width="1"><path d="
M 740.00 1256.00 
C 745.33 1256.00 749.41 1256.00 754.00 1254.00
C 756.29 1253.00 758.69 1251.18 761.00 1250.00
C 754.18 1252.52 747.15 1255.31 740.00 1256.00 Z"/>
</g>
<g fill="None" fill-opacity="0.0" stroke="black" stroke-width="1"><path d="
M 720.00 1276.00 
L 738.00 1276.00
C 738.00 1276.00 738.02 1275.00 738.00 1275.00
C 732.06 1275.23 725.94 1275.23 720.00 1275.00
C 720.00 1275.00 720.00 1275.50 720.00 1276.00 Z"/>
</g>
</svg>